<svg width="191" height="83" viewBox="0 0 191 83" fill="none" xmlns="http://www.w3.org/2000/svg">
<path d="M16.1188 17.2895H67.4963C68.0965 17.2892 68.696 17.3273 69.2913 17.4035C69.0895 15.9871 68.603 14.6261 67.861 13.4028C67.1191 12.1795 66.137 11.119 64.9742 10.2855C63.8113 9.45193 62.4917 8.8625 61.0949 8.55273C59.698 8.24296 58.253 8.21927 56.8467 8.48309L14.5935 15.6968H14.5453C11.8931 16.204 9.53452 17.7046 7.95135 19.8921C10.3365 18.1956 13.1918 17.2857 16.1188 17.2895ZM67.4963 21.1428H16.1188C13.3945 21.1458 10.7826 22.2294 8.85617 24.1558C6.92979 26.0821 5.84624 28.694 5.84326 31.4184V62.2449C5.84624 64.9692 6.92979 67.5811 8.85617 69.5075C10.7826 71.4339 13.3945 72.5174 16.1188 72.5204H67.4963C70.2206 72.5174 72.8325 71.4339 74.7589 69.5075C76.6853 67.5811 77.7689 64.9692 77.7718 62.2449V31.4184C77.7689 28.694 76.6853 26.0821 74.7589 24.1558C72.8325 22.2294 70.2206 21.1458 67.4963 21.1428ZM59.87 51.9694C58.8538 51.9694 57.8605 51.668 57.0156 51.1035C56.1707 50.539 55.5122 49.7366 55.1233 48.7978C54.7344 47.859 54.6327 46.8259 54.8309 45.8293C55.0292 44.8327 55.5185 43.9172 56.237 43.1987C56.9556 42.4801 57.871 41.9908 58.8676 41.7926C59.8643 41.5943 60.8973 41.6961 61.8361 42.0849C62.7749 42.4738 63.5773 43.1323 64.1419 43.9772C64.7064 44.8221 65.0077 45.8155 65.0077 46.8316C65.0077 48.1942 64.4664 49.501 63.5029 50.4646C62.5394 51.4281 61.2326 51.9694 59.87 51.9694Z" fill="#9E9083"/>
<path d="M5.92352 42.2558V26.2806C5.92352 22.8014 7.85018 16.9684 14.5373 15.7049C20.2129 14.6404 25.8323 14.6404 25.8323 14.6404C25.8323 14.6404 29.5251 17.2093 26.4745 17.2093C23.424 17.2093 23.5043 21.1429 26.4745 21.1429C29.4448 21.1429 26.4745 24.9159 26.4745 24.9159L14.5132 38.4828L5.92352 42.2558Z" fill="#685A4D"/>
<path d="M106.271 36.3615C104.608 34.6244 102.871 33.7558 101.059 33.7558C100.091 33.7558 99.3221 34.0412 98.7513 34.612C98.1805 35.1827 97.8951 35.9521 97.8951 36.9199C97.8951 37.987 98.2178 38.8183 98.863 39.4139C99.5082 40.0095 100.761 40.6299 102.623 41.2752C104.484 41.9452 105.75 42.578 106.42 43.1736C107.412 44.0174 107.909 45.1713 107.909 46.6355C107.909 48.9682 106.804 50.8543 104.596 52.2936C102.585 53.6089 99.9673 54.2665 96.7412 54.2665C92.8202 54.2665 89.8671 53.1249 87.8818 50.8418C86.4176 49.1543 85.6855 47.0698 85.6855 44.5881C85.6855 42.5036 86.2066 40.7168 87.2489 39.2278L90.3386 38.5578C89.2218 40.3197 88.6635 42.2182 88.6635 44.2531C88.6635 46.3873 89.3831 48.0996 90.8225 49.3901C92.237 50.6309 94.2099 51.2513 96.7412 51.2513C99.4462 51.2513 101.531 50.7178 102.995 49.6507C104.136 48.8069 104.707 47.7894 104.707 46.5983C104.707 45.9282 104.447 45.3823 103.926 44.9604C103.429 44.5385 102.424 44.067 100.91 43.5458C98.8258 42.8014 97.3864 42.0569 96.5923 41.3124C95.4011 40.2205 94.8055 38.7563 94.8055 36.9199C94.8055 34.9098 95.5128 33.3339 96.9273 32.1924C98.0192 31.3238 99.26 30.8895 100.65 30.8895C102.933 30.8895 104.806 31.7209 106.271 33.3836V36.3615ZM94.2471 60.8552C93.0311 60.8552 92.4231 60.2348 92.4231 58.994C92.4231 57.778 93.0311 57.17 94.2471 57.17C95.4383 57.17 96.0339 57.778 96.0339 58.994C96.0339 60.2348 95.4383 60.8552 94.2471 60.8552ZM98.9746 60.8552C97.7586 60.8552 97.1506 60.2348 97.1506 58.994C97.1506 57.778 97.7586 57.17 98.9746 57.17C100.166 57.17 100.761 57.778 100.761 58.994C100.761 60.2348 100.166 60.8552 98.9746 60.8552ZM110.498 47.1938L112.061 44.1787H118.687C119.68 44.1787 120.375 43.9305 120.772 43.4342C121.194 42.9378 121.405 42.0817 121.405 40.8657C121.405 37.5651 119.879 35.0835 116.826 33.4208L118.464 30.6662C122.36 32.9493 124.395 36.1009 124.569 40.1212C124.618 41.5605 124.941 42.6028 125.537 43.2481C126.157 43.8685 127.137 44.1787 128.477 44.1787H130.674V47.1938H128.217C126.157 47.1938 124.544 46.5362 123.378 45.2209C122.559 46.5362 121.181 47.1938 119.246 47.1938H110.498ZM141.411 44.1787H143.868V47.1938H141.039C138.979 47.1938 137.354 46.5362 136.163 45.2209C134.972 46.5362 133.346 47.1938 131.286 47.1938H128.457V44.1787H130.914C133.346 44.1787 134.562 42.9378 134.562 40.4562V32.7507L137.763 31.0384V40.4562C137.763 42.9378 138.979 44.1787 141.411 44.1787ZM132.515 50.9163C133.706 50.9163 134.302 51.5367 134.302 52.7775C134.302 53.9935 133.706 54.6015 132.515 54.6015C131.299 54.6015 130.691 53.9935 130.691 52.7775C130.691 51.5367 131.299 50.9163 132.515 50.9163ZM137.242 50.9163C138.433 50.9163 139.029 51.5367 139.029 52.7775C139.029 53.9935 138.433 54.6015 137.242 54.6015C136.026 54.6015 135.418 53.9935 135.418 52.7775C135.418 51.5367 136.026 50.9163 137.242 50.9163ZM153.342 44.067C154.335 40.3197 155.973 37.1929 158.256 34.6864C160.812 31.9318 163.79 30.5545 167.19 30.5545C170.019 30.5545 172.277 31.5347 173.965 33.4952C175.379 35.1579 176.087 37.2053 176.087 39.6373V40.6051C176.087 42.7641 175.429 44.4392 174.114 45.6304C172.972 46.6727 171.471 47.1938 169.61 47.1938H154.199C152.139 47.1938 150.513 46.5362 149.322 45.2209C148.131 46.5362 146.506 47.1938 144.446 47.1938H141.617V44.1787H144.074C146.506 44.1787 147.722 42.9378 147.722 40.4562V35.2448L150.923 33.5325V40.4562C150.923 42.5408 151.729 43.7444 153.342 44.067ZM172.885 40.3073V39.6373C172.885 37.7016 172.29 36.163 171.099 35.0214C170.056 34.0288 168.766 33.5325 167.227 33.5325C164.597 33.5325 162.227 34.7485 160.117 37.1805C158.504 39.0417 157.263 41.3744 156.395 44.1787H169.423C171.731 44.1787 172.885 42.8882 172.885 40.3073ZM187.545 45.2209C187.545 48.0004 186.813 50.2338 185.349 51.9214C183.959 53.5344 182.11 54.3409 179.802 54.3409C178.313 54.3409 176.862 53.9687 175.447 53.2242V50.4324C176.713 51.1272 177.978 51.4747 179.244 51.4747C180.832 51.4747 182.073 50.9411 182.966 49.874C183.86 48.8069 184.307 47.3303 184.307 45.4443V32.7507L187.545 31.0384V45.2209Z" fill="#685A4D"/>
</svg>
