<?xml version="1.0" encoding="utf-8"?>
<!-- Generator: Adobe Illustrator 26.5.0, SVG Export Plug-In . SVG Version: 6.00 Build 0)  -->
<svg version="1.1" id="Layer_1" xmlns="http://www.w3.org/2000/svg" xmlns:xlink="http://www.w3.org/1999/xlink" x="0px" y="0px"
	 viewBox="0 0 109.6 87.8" style="enable-background:new 0 0 109.6 87.8;" xml:space="preserve">
<style type="text/css">
	.st0{fill-rule:evenodd;clip-rule:evenodd;fill:#FFD4CA;}
	.st1{fill:#F26530;}
</style>
<g>
	<path class="st0" d="M45.9,1.8c-2.9,0.7-5.8,1.8-8.5,3.3c-18.5,10-25.1,33.4-14.9,52.4C32.7,76.4,55.7,83.7,74.1,74
		c-2.8,2.8-6,5.2-9.6,7.1C44,92.3,18.4,84.6,7.3,64.1S3.9,18,24.4,6.9C31.2,3.2,38.6,1.6,45.9,1.8z"/>
	<path class="st1" d="M45.9,1.8l0.4,1.8L45.9,0V1.8z M74.1,74.1l1.3,1.3l-2.1-2.9L74.1,74.1z M38.2,6.8c2.6-1.4,5.3-2.5,8.1-3.2
		l-0.9-3.5c-3,0.8-6,1.9-8.9,3.5L38.2,6.8z M24.1,56.7c-9.8-18.1-3.4-40.5,14.1-49.9l-1.7-3.2C17.1,14,10.2,38.6,20.9,58.4
		L24.1,56.7z M73.3,72.4c-17.5,9.2-39.5,2.3-49.2-15.7l-3.2,1.7C31.5,78.1,55.7,85.8,75,75.6L73.3,72.4z M72.9,72.8
		c-2.7,2.6-5.8,4.9-9.2,6.8l1.7,3.2c3.8-2,7.1-4.6,10.1-7.4L72.9,72.8z M63.6,79.6C44,90.2,19.5,82.9,8.9,63.2l-3.2,1.7
		C17.3,86.3,44,94.3,65.4,82.7L63.6,79.6z M8.9,63.2C-1.7,43.6,5.6,19.1,25.2,8.5l-1.7-3.2C2.1,16.8-5.9,43.6,5.7,64.9L8.9,63.2z
		 M25.2,8.5C31.8,5,38.9,3.4,45.8,3.7L45.9,0c-7.5-0.2-15.3,1.4-22.4,5.3L25.2,8.5z"/>
</g>
</svg>
