<svg width="56" height="17" viewBox="0 0 56 17" fill="none" xmlns="http://www.w3.org/2000/svg">
<path d="M12.803 10.465H14.969V13.125H12.841C12.385 13.125 11.9354 13.0553 11.492 12.916C11.1627 14.1573 10.4724 15.1263 9.42103 15.823C8.4837 16.4437 7.38803 16.754 6.13403 16.754C4.27203 16.754 2.83436 16.1523 1.82103 14.949C1.04836 14.0117 0.662031 12.9097 0.662031 11.643C0.662031 10.6803 0.877365 9.82533 1.30803 9.078L4.02503 8.47C3.5437 9.28067 3.30303 10.2053 3.30303 11.244C3.30303 12.1307 3.55003 12.8273 4.04403 13.334C4.5507 13.8407 5.24736 14.094 6.13403 14.094C6.99537 14.094 7.67303 13.847 8.16703 13.353C8.6737 12.8717 8.92703 12.213 8.92703 11.377V2.333L11.701 0.869999V9.363C11.701 9.76833 11.7834 10.0533 11.948 10.218C12.1127 10.3827 12.3977 10.465 12.803 10.465ZM25.8731 10.465H27.7351V13.125H25.6261C24.7648 13.125 24.0491 12.9223 23.4791 12.517C22.8204 13.1757 21.9401 13.505 20.8381 13.505C19.7488 13.505 18.8748 13.182 18.2161 12.536C17.6208 12.9287 16.9051 13.125 16.0691 13.125H13.9411V10.465H15.8031C16.2084 10.465 16.4934 10.3827 16.6581 10.218C16.8228 10.0533 16.9051 9.76833 16.9051 9.363V8.831C16.9051 7.32367 17.2978 6.15833 18.0831 5.335C18.7798 4.60033 19.6981 4.233 20.8381 4.233C22.1428 4.233 23.1498 4.708 23.8591 5.658C24.4671 6.46867 24.7774 7.52633 24.7901 8.831V9.363C24.7901 9.781 24.8661 10.0723 25.0181 10.237C25.1828 10.389 25.4678 10.465 25.8731 10.465ZM20.8381 10.845C21.6361 10.845 22.0351 10.1547 22.0351 8.774C22.0351 7.46933 21.6361 6.817 20.8381 6.817C20.0528 6.817 19.6601 7.46933 19.6601 8.774C19.6601 10.1547 20.0528 10.845 20.8381 10.845ZM28.3023 3.188C27.8716 3.188 27.5233 3.055 27.2573 2.789C27.0039 2.523 26.8773 2.17467 26.8773 1.744C26.8773 1.326 27.0039 0.990333 27.2573 0.737C27.5233 0.470999 27.8716 0.337999 28.3023 0.337999C28.7203 0.337999 29.0559 0.464666 29.3093 0.717999C29.5626 0.971333 29.6893 1.31333 29.6893 1.744C29.6893 2.18733 29.5626 2.542 29.3093 2.808C29.0559 3.06133 28.7203 3.188 28.3023 3.188ZM31.4753 3.188C31.0446 3.188 30.6963 3.055 30.4303 2.789C30.1769 2.523 30.0503 2.17467 30.0503 1.744C30.0503 1.326 30.1769 0.990333 30.4303 0.737C30.6963 0.470999 31.0446 0.337999 31.4753 0.337999C31.8933 0.337999 32.2289 0.464666 32.4823 0.717999C32.7356 0.971333 32.8623 1.31333 32.8623 1.744C32.8623 2.18733 32.7356 2.542 32.4823 2.808C32.2289 3.06133 31.8933 3.188 31.4753 3.188ZM33.5463 10.465H35.3893V13.125H33.2803C32.3936 13.125 31.6589 12.9097 31.0763 12.479C30.4683 12.9097 29.7273 13.125 28.8533 13.125H26.7253V10.465H28.5873C28.9926 10.465 29.2776 10.3827 29.4423 10.218C29.6069 10.0533 29.6893 9.76833 29.6893 9.363V6.038L32.4443 4.575V9.363C32.4443 9.76833 32.5203 10.0533 32.6723 10.218C32.8369 10.3827 33.1283 10.465 33.5463 10.465ZM44.5154 10.465H46.1684V13.125H44.2494C43.388 13.125 42.6534 12.916 42.0454 12.498C41.4247 12.916 40.69 13.125 39.8414 13.125H34.3884V10.465H39.5754C40.2974 10.465 40.6584 10.1293 40.6584 9.458V9.363C40.6584 8.61567 40.3227 8.04567 39.6514 7.653C39.208 7.39967 38.6634 7.273 38.0174 7.273C37.3714 7.273 36.6937 7.39967 35.9844 7.653V4.993L39.6894 0.869999H42.4634L39.1574 4.594C40.006 4.708 40.7597 4.993 41.4184 5.449C42.761 6.34833 43.4324 7.64033 43.4324 9.325V9.363C43.4324 9.781 43.5084 10.0723 43.6604 10.237C43.825 10.389 44.11 10.465 44.5154 10.465ZM48.1326 7.824C48.1326 6.65867 48.4936 5.74667 49.2156 5.088C49.849 4.518 50.6723 4.233 51.6856 4.233C52.965 4.233 53.9593 4.70167 54.6686 5.639C55.2766 6.437 55.5806 7.45033 55.5806 8.679C55.5806 10.085 55.1943 11.1997 54.4216 12.023C53.7503 12.7577 52.8826 13.125 51.8186 13.125C50.818 13.125 50.0073 12.935 49.3866 12.555C48.8166 12.935 48.12 13.125 47.2966 13.125H45.1686V10.465H47.0306C47.436 10.465 47.721 10.3827 47.8856 10.218C48.0503 10.0533 48.1326 9.76833 48.1326 9.363V7.824ZM50.8876 9.724C50.8876 10.218 51.1536 10.465 51.6856 10.465C52.471 10.465 52.8636 9.838 52.8636 8.584C52.8636 7.406 52.471 6.817 51.6856 6.817C51.1536 6.817 50.8876 7.12733 50.8876 7.748V9.724Z" fill="white"/>
</svg>
