<svg width="46" height="42" viewBox="0 0 46 42" fill="none" xmlns="http://www.w3.org/2000/svg">
<rect x="1" y="1" width="44" height="40" rx="7.83544" fill="white"/>
<path d="M28.9375 30.8958C28.1128 30.8958 27.4119 30.6072 26.8346 30.0299C26.2574 29.4527 25.9687 28.7517 25.9687 27.9271C25.9687 27.8116 25.977 27.6919 25.9935 27.5679C26.01 27.4445 26.0347 27.3333 26.0677 27.2344L19.0911 23.1771C18.8108 23.4245 18.4974 23.6181 18.151 23.758C17.8047 23.8985 17.4418 23.9687 17.0625 23.9687C16.2378 23.9687 15.5369 23.6801 14.9596 23.1029C14.3824 22.5256 14.0938 21.8246 14.0938 21C14.0938 20.1753 14.3824 19.4744 14.9596 18.8971C15.5369 18.3199 16.2378 18.0312 17.0625 18.0312C17.4418 18.0312 17.8047 18.1012 18.151 18.241C18.4974 18.3816 18.8108 18.5755 19.0911 18.8229L26.0677 14.7656C26.0347 14.6667 26.01 14.5555 25.9935 14.4321C25.977 14.3081 25.9687 14.1884 25.9687 14.0729C25.9687 13.2483 26.2574 12.5473 26.8346 11.97C27.4119 11.3928 28.1128 11.1042 28.9375 11.1042C29.7622 11.1042 30.4631 11.3928 31.0404 11.97C31.6176 12.5473 31.9062 13.2483 31.9062 14.0729C31.9062 14.8976 31.6176 15.5985 31.0404 16.1758C30.4631 16.753 29.7622 17.0417 28.9375 17.0417C28.5582 17.0417 28.1953 16.9714 27.849 16.8309C27.5026 16.691 27.1892 16.4974 26.9089 16.25L19.9323 20.3073C19.9653 20.4062 19.99 20.5174 20.0065 20.6408C20.023 20.7648 20.0312 20.8845 20.0312 21C20.0312 21.1154 20.023 21.2349 20.0065 21.3582C19.99 21.4822 19.9653 21.5937 19.9323 21.6927L26.9089 25.75C27.1892 25.5026 27.5026 25.3086 27.849 25.1681C28.1953 25.0283 28.5582 24.9583 28.9375 24.9583C29.7622 24.9583 30.4631 25.247 31.0404 25.8242C31.6176 26.4015 31.9062 27.1024 31.9062 27.9271C31.9062 28.7517 31.6176 29.4527 31.0404 30.0299C30.4631 30.6072 29.7622 30.8958 28.9375 30.8958Z" fill="#F24E1E"/>
<rect x="1" y="1" width="44" height="40" rx="7.83544" stroke="#F26530" stroke-width="1.95886"/>
</svg>
