<?xml version="1.0" encoding="utf-8"?>
<!-- Generator: Adobe Illustrator 26.5.0, SVG Export Plug-In . SVG Version: 6.00 Build 0)  -->
<svg version="1.1" id="Layer_1" xmlns="http://www.w3.org/2000/svg" xmlns:xlink="http://www.w3.org/1999/xlink" x="0px" y="0px"
	 viewBox="0 0 67.9 67.9" style="enable-background:new 0 0 67.9 67.9;" xml:space="preserve">
<style type="text/css">
	.st0{fill:#FFFFFF;}
	.st1{fill-rule:evenodd;clip-rule:evenodd;fill:#FFD1BF;}
	.st2{fill:#685A4D;}
	.st3{fill-rule:evenodd;clip-rule:evenodd;fill:#FFFFFF;filter:url(#Adobe_OpacityMaskFilter);}
	.st4{mask:url(#path-2-inside-1_80_6107_00000165222985663488403230000006556132719229366941_);fill:#F26530;}
</style>
<circle class="st0" cx="34.1" cy="34.7" r="32.6"/>
<g>
	<path class="st1" d="M30.8,11.2c-1.6,0.4-3.3,1-4.8,1.9C15.6,18.8,11.8,32,17.6,42.8c5.8,10.7,18.8,14.8,29.2,9.3
		c-1.6,1.6-3.4,2.9-5.5,4C29.8,62.4,15.3,58.1,9,46.5c-6.3-11.6-1.9-26.1,9.7-32.4C22.6,12,26.7,11.1,30.8,11.2z"/>
</g>
<g>
	<path class="st2" d="M27,36.8c-0.3,0-0.5-0.1-0.6-0.2c-0.2-0.2-0.2-0.4-0.2-0.6c0-0.2,0.1-0.5,0.2-0.6c0.2-0.2,0.4-0.2,0.6-0.2
		s0.5,0.1,0.6,0.2c0.2,0.1,0.2,0.3,0.2,0.6C27.8,36.5,27.5,36.8,27,36.8z M30.6,41.6c0,1-0.4,1.9-1.1,2.5c-0.6,0.5-1.4,0.8-2.4,0.8
		c-1.2,0-2.1-0.4-2.7-1.2c-0.5-0.6-0.7-1.4-0.7-2.2c0-0.7,0.2-1.3,0.5-1.8l1.5-0.3c-0.3,0.6-0.5,1.2-0.5,1.8c0,0.7,0.2,1.2,0.6,1.6
		c0.4,0.4,0.8,0.6,1.4,0.6c0.6,0,1.1-0.2,1.4-0.5c0.3-0.3,0.5-0.7,0.5-1.3v-4l1.6-0.9V41.6z M35.2,42.4c-0.8,0-1.4-0.2-1.8-0.7
		c-0.4-0.4-0.6-1-0.6-1.7V35l1.6-0.9v5.8c0,0.3,0.1,0.6,0.2,0.7c0.1,0.1,0.4,0.2,0.7,0.2h1.2v1.6H35.2z M45.2,35.4
		c-0.3,0-0.5-0.1-0.6-0.2c-0.2-0.2-0.2-0.4-0.2-0.6c0-0.2,0.1-0.5,0.2-0.6c0.2-0.2,0.4-0.2,0.6-0.2c0.3,0,0.5,0.1,0.6,0.2
		c0.2,0.1,0.2,0.3,0.2,0.6C46,35.1,45.7,35.4,45.2,35.4z M49.1,40.9h1.2v1.6h-1.3c-0.6,0-1.1-0.2-1.6-0.5c-0.4,0.3-0.9,0.5-1.6,0.5
		h-5.6c-0.6,0-1.1-0.2-1.6-0.5c-0.4,0.3-0.9,0.5-1.6,0.5h-1.3v-1.6h1.2c0.3,0,0.6-0.1,0.7-0.2c0.1-0.1,0.2-0.4,0.2-0.7v-1.7l1.6-0.9
		v2.6c0,0.5,0.2,0.9,0.7,0.9c0.4-1.3,1-2.3,1.8-3.1c0.9-0.9,1.9-1.3,3-1.3c1,0,1.8,0.4,2.4,1.1c0.5,0.6,0.8,1.3,0.8,2.2V40
		C48.2,40.6,48.5,40.9,49.1,40.9z M45.7,40.9c0.3,0,0.5-0.1,0.6-0.2c0.1-0.1,0.2-0.4,0.2-0.7v-0.2c0-0.5-0.1-0.9-0.4-1.3
		C45.8,38.1,45.4,38,45,38c-0.7,0-1.3,0.3-1.9,0.8c-0.6,0.5-1,1.2-1.4,2.1H45.7z M51.5,38.9c0-0.8,0.2-1.4,0.7-1.8
		c0.4-0.4,1-0.6,1.6-0.6c0.9,0,1.5,0.3,2,0.9c0.4,0.5,0.6,1.2,0.6,2c0,1-0.3,1.7-0.8,2.3c-0.5,0.5-1,0.7-1.7,0.7
		c-0.7,0-1.2-0.2-1.7-0.5c-0.4,0.3-0.9,0.5-1.5,0.5h-1.3v-1.6h1.2c0.3,0,0.6-0.1,0.7-0.2c0.1-0.1,0.2-0.4,0.2-0.7V38.9z M53.1,40.1
		c0,0.5,0.3,0.7,0.8,0.7c0.6,0,1-0.5,1-1.5c0-0.9-0.3-1.4-1-1.4c-0.5,0-0.7,0.3-0.7,0.9V40.1z M60.9,41.6c0,1-0.3,1.8-0.8,2.4
		c-0.5,0.6-1.2,0.9-2,0.9c-0.5,0-1.1-0.1-1.6-0.4v-1.4c0.4,0.2,0.9,0.4,1.3,0.4c0.5,0,0.8-0.2,1.1-0.5c0.3-0.3,0.4-0.7,0.4-1.3v-4.2
		l1.6-0.9V41.6z"/>
	<defs>
		<filter id="Adobe_OpacityMaskFilter" filterUnits="userSpaceOnUse" x="4.1" y="8.8" width="44.1" height="51.8">
			<feColorMatrix  type="matrix" values="1 0 0 0 0  0 1 0 0 0  0 0 1 0 0  0 0 0 1 0"/>
		</filter>
	</defs>
	
		<mask maskUnits="userSpaceOnUse" x="4.1" y="8.8" width="44.1" height="51.8" id="path-2-inside-1_80_6107_00000165222985663488403230000006556132719229366941_">
		<path class="st3" d="M30.8,10.9c-1.6,0.4-3.3,1-4.8,1.9c-10.4,5.6-14.2,18.9-8.4,29.7c5.8,10.7,18.8,14.8,29.2,9.3
			c-1.6,1.6-3.4,2.9-5.5,4C29.8,62,15.3,57.7,9,46.1C2.8,34.5,7.1,20,18.7,13.7C22.6,11.6,26.7,10.7,30.8,10.9z"/>
	</mask>
	<path class="st4" d="M30.8,10.9l0.5,2l-0.4-4L30.8,10.9z M46.8,51.7l1.4,1.4l-2.4-3.2L46.8,51.7z M27,14.5c1.4-0.8,2.9-1.3,4.3-1.7
		l-1-3.9c-1.8,0.5-3.6,1.1-5.3,2.1L27,14.5z M19.4,41.4c-5.3-9.8-1.8-21.8,7.6-26.9L25.1,11c-11.5,6.2-15.5,20.7-9.2,32.4L19.4,41.4
		z M45.9,49.9c-9.4,5-21.2,1.2-26.5-8.5l-3.5,1.9c6.3,11.6,20.5,16.2,31.9,10.2L45.9,49.9z M45.4,50.3c-1.4,1.4-3.1,2.7-5,3.7
		l1.9,3.5c2.2-1.2,4.2-2.7,5.9-4.4L45.4,50.3z M40.4,54c-10.6,5.7-23.9,1.8-29.6-8.9L7.2,47C14,59.6,29.8,64.3,42.3,57.5L40.4,54z
		 M10.8,45.1C5.1,34.5,9,21.2,19.6,15.5l-1.9-3.5C5.1,18.7,0.5,34.4,7.2,47L10.8,45.1z M19.6,15.5c3.5-1.9,7.4-2.7,11.1-2.6l0.1-4
		c-4.4-0.2-9,0.8-13.2,3.1L19.6,15.5z"/>
</g>
</svg>
