<?xml version="1.0" encoding="utf-8"?>
<!-- Generator: Adobe Illustrator 26.5.0, SVG Export Plug-In . SVG Version: 6.00 Build 0)  -->
<svg version="1.1" id="Layer_1" xmlns="http://www.w3.org/2000/svg" xmlns:xlink="http://www.w3.org/1999/xlink" x="0px" y="0px"
	 viewBox="0 0 86 39" style="enable-background:new 0 0 86 39;" xml:space="preserve">
<style type="text/css">
	.st0{fill:#6AA664;}
	.st1{fill:#FFFFFF;}
</style>
<path class="st0" d="M0.7,1l73.8,1.2c0,0,4.2,10.3,6.3,17.2c2.2,7.3,4.4,19,4.4,19H0.7L10.5,20L0.7,1z"/>
<g>
	<path class="st1" d="M30.3,20.4h2v2.9h-1.9c-0.4,0-0.7,0-1.1-0.1c-0.3,1.1-1,2-2,2.7c-0.9,0.6-1.9,0.9-3.1,0.9
		c-1.8,0-3.2-0.6-4.2-1.7c-0.7-0.9-1.1-1.9-1.1-3.1c0-0.9,0.2-1.7,0.6-2.4l2.9-0.7c-0.4,0.7-0.6,1.6-0.6,2.6c0,0.8,0.2,1.4,0.6,1.8
		c0.4,0.4,1,0.6,1.8,0.6c0.7,0,1.3-0.2,1.8-0.6c0.4-0.4,0.7-1,0.7-1.7v-8.1l2.9-1.6v7.9c0,0,0,0.1,0,0.1c0,0.3,0.1,0.4,0.2,0.5
		C29.8,20.4,30,20.4,30.3,20.4z"/>
	<path class="st1" d="M42.8,20.4h1.7v2.9h-1.9c-0.7,0-1.4-0.2-1.9-0.5c-0.7,0.6-1.5,0.8-2.4,0.8s-1.8-0.3-2.4-0.8
		c-0.5,0.3-1.1,0.5-1.9,0.5h-1.9v-2.9h1.7c0.3,0,0.5-0.1,0.6-0.2c0.1-0.1,0.2-0.3,0.2-0.6v-0.5c0-1.4,0.4-2.5,1.1-3.3
		c0.7-0.7,1.6-1.1,2.7-1.1c1.3,0,2.2,0.5,2.9,1.4c0.6,0.8,0.9,1.8,0.9,3v0.5c0,0.3,0.1,0.5,0.2,0.6C42.2,20.4,42.4,20.4,42.8,20.4z
		 M38.2,20.8c0.6,0,0.9-0.6,0.9-1.7c0-1-0.3-1.5-0.9-1.5s-0.9,0.5-0.9,1.5C37.3,20.2,37.6,20.8,38.2,20.8z"/>
	<path class="st1" d="M46.5,12.6c0,0.5-0.1,0.8-0.4,1.1c-0.3,0.3-0.6,0.4-1.1,0.4s-0.8-0.1-1.1-0.4c-0.3-0.3-0.4-0.6-0.4-1.1
		s0.1-0.8,0.4-1.1c0.3-0.3,0.6-0.4,1.1-0.4s0.8,0.1,1.1,0.4C46.4,11.8,46.5,12.1,46.5,12.6z M50.2,20.4h1.7v2.9H50
		c-0.8,0-1.4-0.2-2-0.5c-0.6,0.4-1.2,0.5-2,0.5h-1.9v-2.9h1.7c0.3,0,0.5-0.1,0.6-0.2s0.2-0.3,0.2-0.6v-2.9l2.9-1.6v4.5
		c0,0.3,0.1,0.5,0.2,0.6C49.7,20.4,49.9,20.4,50.2,20.4z M48.3,14.1c-0.4,0-0.8-0.1-1.1-0.4c-0.3-0.3-0.4-0.6-0.4-1.1
		s0.1-0.8,0.4-1.1c0.3-0.3,0.6-0.4,1.1-0.4c0.4,0,0.8,0.1,1.1,0.4c0.3,0.3,0.4,0.6,0.4,1.1c0,0.5-0.1,0.8-0.4,1.1
		C49.1,14,48.7,14.1,48.3,14.1z"/>
	<path class="st1" d="M60.7,20.4h1.5v2.9h-1.7c-0.8,0-1.4-0.2-2-0.5c-0.5,0.3-1.2,0.5-2,0.5h-4.9v-2.9h4.6c0.3,0,0.5,0,0.6-0.1
		c0.1-0.1,0.2-0.3,0.2-0.5v-0.1c0-0.7-0.3-1.1-0.9-1.5c-0.4-0.2-0.8-0.3-1.4-0.3c-0.6,0-1.2,0.1-1.9,0.4v-2.8l3.3-3.7H59l-3,3.4
		c0.7,0.1,1.3,0.4,1.9,0.8c1.3,0.9,2,2.1,2,3.7c0,0.3,0.1,0.5,0.2,0.6S60.4,20.4,60.7,20.4z"/>
	<path class="st1" d="M64.2,18.2c0-1.1,0.4-2,1.1-2.6c0.6-0.5,1.4-0.8,2.4-0.8c1.2,0,2.2,0.5,2.9,1.4c0.6,0.8,0.9,1.7,0.9,2.9
		c0,1.3-0.4,2.4-1.1,3.2c-0.6,0.7-1.5,1.1-2.5,1.1c-0.9,0-1.7-0.1-2.2-0.4c-0.5,0.3-1.1,0.4-1.8,0.4h-1.9v-2.9h1.7
		c0.3,0,0.5-0.1,0.6-0.2s0.2-0.3,0.2-0.6V18.2z M67.2,20c0,0.2,0.2,0.4,0.5,0.4c0.6,0,0.9-0.5,0.9-1.5c0-0.9-0.3-1.4-0.9-1.4
		c-0.3,0-0.5,0.2-0.5,0.6V20z"/>
</g>
</svg>
