<?xml version="1.0" encoding="utf-8"?>
<!-- Generator: Adobe Illustrator 26.5.0, SVG Export Plug-In . SVG Version: 6.00 Build 0)  -->
<svg version="1.1" id="Layer_1" xmlns="http://www.w3.org/2000/svg" xmlns:xlink="http://www.w3.org/1999/xlink" x="0px" y="0px"
	 viewBox="0 0 42 44" style="enable-background:new 0 0 42 44;" xml:space="preserve">
<style type="text/css">
	.st0{fill-rule:evenodd;clip-rule:evenodd;fill:#FFFFFF;}
	.st1{fill:#D97D52;}
</style>
<path class="st0" d="M22.8,10.1c-0.3,0-0.5,0-0.8-0.1s-0.5-0.1-0.8-0.2c-0.2-0.1-0.5-0.2-0.7-0.4s-0.4-0.3-0.6-0.5s-0.4-0.4-0.5-0.6
	c-0.1-0.2-0.3-0.5-0.4-0.7c0-0.3-0.1-0.6-0.2-0.8c-0.1-0.3-0.1-0.5-0.1-0.8s0-0.5,0.1-0.8c0-0.3,0.1-0.5,0.2-0.8s0.2-0.5,0.4-0.7
	c0.1-0.2,0.3-0.4,0.5-0.6s0.4-0.4,0.6-0.5c0.2-0.2,0.5-0.3,0.7-0.4C21.4,2.1,21.7,2,22,1.9c0.3-0.1,0.5-0.1,0.8-0.1
	c-0.2-0.1-0.4-0.1-0.7-0.2c-0.2,0-0.5-0.1-0.7-0.1s-0.5,0-0.7,0s-0.5,0-0.7,0.1c-0.2,0-0.5,0.1-0.7,0.2S18.9,1.9,18.7,2
	s-0.4,0.2-0.6,0.3c-0.2,0.1-0.4,0.2-0.6,0.4C17.3,2.8,17.1,3,17,3.1c-0.2,0.2-0.3,0.3-0.5,0.5c-0.1,0.2-0.3,0.4-0.4,0.6
	s-0.2,0.4-0.3,0.6s-0.2,0.4-0.3,0.6s-0.1,0.4-0.2,0.7c-0.1,0.2-0.1,0.5-0.1,0.7s0,0.5,0,0.7c0,0.4,0,0.8,0.1,1.2s0.2,0.8,0.4,1.2
	s0.4,0.7,0.6,1.1c0.2,0.3,0.5,0.6,0.8,0.9c0.3,0.3,0.6,0.5,1,0.7c0.2,0.1,0.4,0.2,0.6,0.3C8.3,14,0.2,22.7,0.2,33.3v10.4h41V33.3
	c0-10.4-7.7-19-17.8-20.3c0.1-0.1,0.3-0.1,0.4-0.2c0.4-0.2,0.7-0.4,1-0.7s0.6-0.6,0.9-0.9c0.3-0.3,0.5-0.7,0.7-1
	c0.2-0.4,0.3-0.7,0.4-1.1C26.9,8.7,27,8.3,27,7.9s0-0.8,0-1.2c-0.1,0.5-0.3,0.9-0.5,1.4c-0.2,0.4-0.6,0.8-0.9,1.1
	c-0.4,0.3-0.8,0.6-1.3,0.7C23.8,10,23.3,10.1,22.8,10.1z"/>
<g>
	<path class="st1" d="M1.4,26.4h39l1.3,4.9v12.3H0.2c0-4.9,0.2-8.3,0.2-13.2C0.4,29.6,1.4,27.2,1.4,26.4z"/>
</g>
<path d="M21.6,7.9l-0.1,0.6l0,0L21.6,7.9z M22.2,8v0.6l0,0V8z M21,7.7l-0.2,0.5l0,0L21,7.7z M20.5,7.4l-0.4,0.5l0,0L20.5,7.4z M20,7
	l-0.4,0.4l0,0L20,7z M19.4,6l-0.5,0.2l0,0L19.4,6z M19.2,5.5l0.6-0.1l0,0L19.2,5.5z M19.1,4.9h-0.6l0,0H19.1z M19.2,4.3l-0.6-0.1
	l0,0L19.2,4.3z M19.3,3.7l-0.6-0.2l0,0L19.3,3.7z M19.6,3.1l-0.5-0.3l0,0L19.6,3.1z M20,2.7l-0.4-0.4l0,0L20,2.7z M20.4,2.3l0.3,0.5
	l0,0L20.4,2.3z M21.5,1.8l-0.1-0.6l0,0L21.5,1.8z M22.1,1.7v0.6l0.1-1.2L22.1,1.7z M21.6,1.6L21.7,1l0,0L21.6,1.6z M21.1,1.5V0.9
	l0,0V1.5z M20.6,1.5v0.6l0,0V1.5z M20.1,1.6L20,1l0,0L20.1,1.6z M19.6,1.7l0.2,0.6l0,0L19.6,1.7z M19.1,1.9l-0.2-0.5l0,0L19.1,1.9z
	 M18.6,2.1l-0.3-0.5l0,0L18.6,2.1z M18.2,2.4l-0.4-0.5l0,0L18.2,2.4z M17.8,2.7l-0.4-0.4l0,0L17.8,2.7z M17.1,3.5l-0.5-0.3l0,0
	L17.1,3.5z M16.9,4l-0.5-0.3l0,0L16.9,4z M16.7,4.5l-0.6-0.3l0,0L16.7,4.5z M16.5,5l0.6,0.1l0,0L16.5,5z M16.4,5.5l-0.6-0.1l0,0
	L16.4,5.5z M16.4,6H17l0,0H16.4z M16.5,6.9L15.9,7l0,0L16.5,6.9z M16.7,7.8l0.5-0.2l0,0L16.7,7.8z M17.2,8.6l-0.5,0.3l0,0L17.2,8.6z
	 M17.8,9.3l-0.4,0.4l0,0L17.8,9.3z M18.5,9.8l0.3-0.5l0,0L18.5,9.8z M19.4,10.2l-0.2,0.6l0,0L19.4,10.2z M20.2,10.4l0.1-0.6l0,0
	L20.2,10.4z M20.5,10.5l0.2,0.6l-0.2-1.2V10.5z M0.3,43.7h-0.6v0.6h0.6C0.3,44.3,0.3,43.7,0.3,43.7z M41.3,43.7v0.6h0.6v-0.6H41.3z
	 M21.1,10.5V9.9l-0.2,1.2L21.1,10.5z M21.2,10.5v0.6l0,0V10.5z M22.1,10.3l0.2,0.6l0,0L22.1,10.3z M22.9,10l0.3,0.5l0,0L22.9,10z
	 M23.7,9.5l0.4,0.4l0,0L23.7,9.5z M24.3,8.8l-0.5-0.4l0,0L24.3,8.8z M24.8,8l0.5,0.3l0,0L24.8,8z M25.3,6.3h0.6l0,0H25.3z M25.3,5.4
	l0.6-0.1h-1.2L25.3,5.4z M24.9,6.4l0.5,0.3l0,0L24.9,6.4z M24.2,7.2l0.4,0.5l0,0L24.2,7.2z M23.3,7.8l-0.2-0.6l0,0L23.3,7.8z
	 M21.5,8.5c0.2,0,0.5,0.1,0.7,0.1V7.4c-0.2,0-0.3,0-0.5-0.1L21.5,8.5z M20.8,8.3c0.2,0.1,0.4,0.2,0.7,0.2l0.3-1.2
	c-0.2,0-0.3-0.1-0.5-0.2L20.8,8.3z M20.1,7.9c0.2,0.1,0.4,0.2,0.6,0.3l0.5-1.1C21,7,20.9,7,20.8,6.9L20.1,7.9z M19.6,7.4
	c0.2,0.2,0.3,0.4,0.5,0.5l0.7-1c-0.1-0.1-0.3-0.2-0.4-0.3L19.6,7.4z M19.1,6.9c0.1,0.2,0.3,0.4,0.4,0.6l0.9-0.9
	c-0.1-0.1-0.2-0.2-0.3-0.4L19.1,6.9z M18.8,6.3c0.1,0.2,0.2,0.4,0.3,0.6l1-0.7c-0.1-0.1-0.2-0.3-0.2-0.4L18.8,6.3z M18.6,5.6
	c0,0.2,0.1,0.5,0.2,0.7l1.1-0.5c-0.1-0.2-0.1-0.3-0.1-0.5L18.6,5.6z M18.5,4.9c0,0.2,0,0.5,0.1,0.7l1.2-0.2c0-0.2-0.1-0.3-0.1-0.5
	H18.5z M18.6,4.2c0,0.2-0.1,0.5-0.1,0.7h1.2c0-0.2,0-0.3,0-0.5L18.6,4.2z M18.8,3.5c-0.1,0.2-0.2,0.5-0.2,0.7l1.2,0.2
	c0-0.2,0.1-0.3,0.1-0.5L18.8,3.5z M19.1,2.8C19,3,18.9,3.2,18.8,3.4l1.1,0.4c0-0.1,0.1-0.2,0.2-0.3L19.1,2.8z M19.5,2.3
	c-0.1,0.1-0.3,0.3-0.4,0.5l1,0.6c0.1-0.1,0.2-0.3,0.3-0.4L19.5,2.3z M20.1,1.8c-0.2,0.1-0.4,0.3-0.5,0.5l0.9,0.8
	c0.1-0.1,0.2-0.2,0.4-0.3L20.1,1.8z M20.7,1.4c-0.2,0.1-0.4,0.2-0.6,0.4l0.7,1c0.1-0.1,0.3-0.2,0.4-0.2L20.7,1.4z M21.4,1.2
	c-0.2,0.1-0.5,0.1-0.7,0.2l0.5,1.1c0.2-0.1,0.3-0.1,0.5-0.2L21.4,1.2z M22.1,1.1c-0.2,0-0.5,0-0.7,0.1l0.3,1.2
	c0.2,0,0.3-0.1,0.5-0.1L22.1,1.1z M21.5,2.2c0.2,0,0.3,0.1,0.4,0.1l0.3-1.1c-0.2-0.1-0.4-0.1-0.6-0.1L21.5,2.2z M21.1,2.1
	c0.2,0,0.3,0,0.5,0l0.2-1.2c-0.2,0-0.4-0.1-0.6-0.1L21.1,2.1z M20.6,2.1c0.1,0,0.3,0,0.4,0l0.1-1.2c-0.2,0-0.4,0-0.6,0L20.6,2.1z
	 M20.2,2.2c0.1,0,0.3,0,0.5-0.1l-0.1-1.2c-0.2,0-0.4,0-0.6,0.1L20.2,2.2z M19.7,2.3c0.1,0,0.3-0.1,0.4-0.1L19.9,1
	c-0.2,0-0.4,0.1-0.6,0.1L19.7,2.3z M19.3,2.4c0.1-0.1,0.3-0.1,0.4-0.2l-0.4-1.1c-0.2,0.1-0.4,0.1-0.5,0.2L19.3,2.4z M18.9,2.6
	c0.1-0.1,0.3-0.1,0.4-0.2l-0.5-1.1c-0.2,0.1-0.4,0.2-0.5,0.3L18.9,2.6z M18.5,2.9c0.1-0.1,0.2-0.2,0.4-0.3l-0.6-1
	c-0.2,0.1-0.3,0.2-0.5,0.3L18.5,2.9z M18.2,3.2c0.1-0.1,0.2-0.2,0.3-0.3L17.8,2c-0.2,0.1-0.3,0.2-0.4,0.4L18.2,3.2z M17.9,3.5
	c0.1-0.1,0.2-0.2,0.3-0.3l-0.8-0.9c-0.2,0.1-0.3,0.3-0.4,0.4L17.9,3.5z M17.6,3.9c0.1-0.1,0.2-0.2,0.3-0.4L17,2.7
	c-0.1,0.2-0.2,0.3-0.3,0.5L17.6,3.9z M17.4,4.2c0.1-0.1,0.1-0.3,0.2-0.4l-1-0.6c-0.1,0.2-0.2,0.3-0.3,0.5L17.4,4.2z M17.2,4.7
	c0.1-0.1,0.1-0.3,0.2-0.4l-1.1-0.5c-0.1,0.2-0.2,0.4-0.2,0.5L17.2,4.7z M17.1,5.1c0-0.1,0.1-0.3,0.1-0.4l-1.1-0.4
	C16,4.5,16,4.7,15.9,4.9L17.1,5.1z M17,5.5c0-0.2,0-0.3,0.1-0.4l-1.2-0.3c0,0.2-0.1,0.4-0.1,0.6L17,5.5z M17,6c0-0.1,0-0.3,0-0.5
	l-1.2-0.1c0,0.2,0,0.4,0,0.6H17z M17.1,6.8C17,6.5,17,6.3,17,6h-1.2c0,0.3,0,0.7,0.1,1L17.1,6.8z M17.3,7.5
	c-0.1-0.2-0.2-0.5-0.2-0.7L15.9,7c0.1,0.3,0.2,0.7,0.3,1L17.3,7.5z M17.7,8.2c-0.2-0.2-0.3-0.5-0.4-0.7L16.2,8
	c0.1,0.3,0.3,0.6,0.5,0.9L17.7,8.2z M18.2,8.8c-0.2-0.2-0.4-0.4-0.5-0.6l-1,0.7c0.2,0.3,0.4,0.5,0.7,0.8L18.2,8.8z M18.8,9.3
	c-0.2-0.1-0.4-0.3-0.6-0.5l-0.8,0.9c0.3,0.2,0.5,0.4,0.8,0.6L18.8,9.3z M19.6,9.7c-0.3-0.1-0.5-0.2-0.8-0.4l-0.6,1
	c0.3,0.2,0.6,0.3,0.9,0.5L19.6,9.7z M20.3,9.8c-0.3,0-0.5-0.1-0.8-0.2l-0.4,1.1c0.3,0.1,0.7,0.2,1,0.2L20.3,9.8z M20.6,9.9
	c-0.1,0-0.2,0-0.3,0l-0.2,1.2c0.1,0,0.2,0,0.3,0L20.6,9.9z M20.5,11.3c0-0.1,0.1-0.2,0.2-0.3l-0.4-1.1c-0.6,0.2-1,0.8-1,1.4
	C19.3,11.3,20.5,11.3,20.5,11.3z M20.8,11.6c-0.2,0-0.3-0.1-0.3-0.3h-1.2c0,0.8,0.7,1.5,1.5,1.5V11.6z M20.8,11.6
	c-11.6,0-21,9.4-21,21.1H1c0-11,8.9-19.9,19.9-19.9L20.8,11.6L20.8,11.6z M-0.2,32.7v11H1v-11H-0.2z M0.3,44.3h41v-1.2h-41
	C0.3,43.1,0.3,44.3,0.3,44.3z M41.9,43.7v-11h-1.2v11H41.9z M41.9,32.7c0-11.6-9.4-21.1-21.1-21.1v1.2c11,0,19.9,8.9,19.9,19.9H41.9
	z M21.1,11.3c0,0.2-0.1,0.3-0.3,0.3v1.2c0.8,0,1.5-0.7,1.5-1.5H21.1z M20.9,11c0.1,0,0.2,0.2,0.2,0.3h1.2c0-0.6-0.4-1.2-1-1.4
	L20.9,11z M21.1,9.9L21.1,9.9v1.2l0,0V9.9z M21.9,9.7c-0.3,0.1-0.5,0.1-0.8,0.1l0.1,1.2c0.3,0,0.7-0.1,1-0.2L21.9,9.7z M22.6,9.4
	c-0.2,0.1-0.5,0.2-0.7,0.3l0.3,1.1c0.3-0.1,0.7-0.2,1-0.4L22.6,9.4z M23.3,9c-0.2,0.2-0.4,0.3-0.7,0.4l0.6,1
	c0.3-0.2,0.6-0.4,0.9-0.6L23.3,9z M23.9,8.4c-0.2,0.2-0.4,0.4-0.6,0.6l0.8,0.9c0.3-0.2,0.5-0.5,0.7-0.7L23.9,8.4z M24.3,7.8
	C24.2,8,24,8.3,23.9,8.5l0.9,0.8C25,9,25.2,8.7,25.4,8.4L24.3,7.8z M24.6,7c-0.1,0.3-0.2,0.5-0.3,0.7l1.1,0.5c0.2-0.3,0.3-0.6,0.4-1
	L24.6,7z M24.7,6.2c0,0.3-0.1,0.5-0.1,0.8l1.1,0.3c0.1-0.3,0.1-0.7,0.2-1L24.7,6.2z M24.7,5.4c0,0.3,0,0.5,0,0.8l1.2,0.1
	c0-0.3,0-0.7,0-1L24.7,5.4z M25.4,6.7c0.2-0.4,0.4-0.8,0.4-1.2l-1.2-0.2c-0.1,0.3-0.2,0.6-0.3,0.8L25.4,6.7z M24.6,7.7
	c0.3-0.3,0.6-0.6,0.8-1l-1-0.6c-0.2,0.3-0.3,0.5-0.6,0.7L24.6,7.7z M23.5,8.3c0.4-0.2,0.8-0.4,1.1-0.7l-0.8-0.9
	C23.6,6.9,23.3,7,23,7.1L23.5,8.3z M22.2,8.6c0.4,0,0.9-0.1,1.3-0.2l-0.4-1.2c-0.3,0.1-0.6,0.2-0.9,0.2V8.6z"/>
</svg>
