<svg width="879" height="247" viewBox="0 0 879 247" fill="none" xmlns="http://www.w3.org/2000/svg">
<path d="M117.656 214.17L123.342 223.554L134.489 221.092L126.856 229.354L132.541 238.738L122.138 234.46L114.504 242.722L115.708 231.816L105.304 227.538L116.452 225.076L117.656 214.17Z" fill="#C0B1A5"/>
<path d="M671.625 79.389L677.31 88.7731L688.458 86.3109L680.824 94.5729L686.51 103.957L676.106 99.679L668.472 107.941L669.677 97.0351L659.273 92.7571L670.421 90.2949L671.625 79.389Z" fill="#C0B1A5"/>
<path d="M712.196 223.684L712.221 229.858L718.313 231.899L712.237 233.674L712.262 239.847L708.482 234.771L702.406 236.545L706.146 231.633L702.366 226.556L708.457 228.597L712.196 223.684Z" fill="#C0B1A5"/>
<path d="M771.927 126.938L775 132.293L781.304 131.056L776.899 135.602L779.973 140.957L774.177 138.412L769.773 142.958L770.595 136.839L764.8 134.294L771.104 133.057L771.927 126.938Z" fill="#C0B1A5"/>
<path d="M83.0828 161.421L86.1561 166.775L92.46 165.539L88.0556 170.085L91.1289 175.439L85.3335 172.894L80.929 177.44L81.7517 171.321L75.9562 168.776L82.2601 167.54L83.0828 161.421Z" fill="#C0B1A5"/>
<path d="M850.343 13.401C850.01 14.0648 849.729 14.6809 849.502 15.269C849.683 14.7474 849.902 14.1901 850.163 13.5852L850.169 13.5721L850.173 13.5585C850.896 11.307 851.338 9.55924 851.564 7.85606C851.563 7.87426 851.561 7.89246 851.56 7.91066C851.446 9.58847 851.047 11.2561 850.343 13.401Z" fill="#685A4D" stroke="#685A4D" stroke-width="0.59375"/>
<rect x="826.926" y="57.341" width="43.0976" height="47.53" transform="rotate(3.68108 826.926 57.341)" fill="#FFF8F6" stroke="#685A4D" stroke-width="0.59375"/>
<rect x="832.086" y="65.9216" width="5.73833" height="31.6998" rx="2.86916" transform="rotate(3.68108 832.086 65.9216)" fill="#685A4D" stroke="#685A4D" stroke-width="0.59375"/>
<rect x="844.723" y="66.7346" width="5.73833" height="31.6998" rx="2.86916" transform="rotate(3.68108 844.723 66.7346)" fill="#685A4D" stroke="#685A4D" stroke-width="0.59375"/>
<rect x="857.359" y="67.5477" width="5.73833" height="31.6998" rx="2.86916" transform="rotate(3.68108 857.359 67.5477)" fill="#685A4D" stroke="#685A4D" stroke-width="0.59375"/>
<path d="M827.548 52.9392L869.885 55.663C872.414 55.8257 874.355 57.9312 874.348 60.4313L822.511 57.0963C822.824 54.6159 825.019 52.7765 827.548 52.9392Z" fill="#FFF8F6" stroke="#685A4D" stroke-width="0.59375"/>
<path d="M866.222 112.574L823.884 109.85C821.355 109.687 819.414 107.582 819.421 105.082L871.259 108.416C870.945 110.897 868.75 112.736 866.222 112.574Z" fill="#FFF8F6" stroke="#685A4D" stroke-width="0.59375"/>
<path d="M841.428 44.3145L857.226 45.3308C862.198 45.6507 865.993 49.8631 865.832 54.8072L831.679 52.61C832.153 47.686 836.456 43.9946 841.428 44.3145Z" fill="#FFF8F6" stroke="#685A4D" stroke-width="0.59375"/>
<path d="M847.328 35.1765L852.539 35.5117C855.648 35.7117 858.006 38.3941 857.806 41.5029L857.596 44.7599L841.127 43.7003L841.337 40.4433C841.537 37.3345 844.219 34.9765 847.328 35.1765Z" fill="#FFF8F6" stroke="#685A4D" stroke-width="0.59375"/>
<path d="M853.908 33.0814L853.785 34.9968L846.163 34.5064L846.286 32.591C846.421 30.4862 848.237 28.8897 850.342 29.0251C852.447 29.1605 854.044 30.9766 853.908 33.0814Z" fill="#FFF8F6" stroke="#685A4D" stroke-width="0.59375"/>
<path d="M847.483 132.922L847.607 131.006L839.985 130.516L839.861 132.431C839.726 134.536 841.322 136.352 843.427 136.488C845.532 136.623 847.348 135.027 847.483 132.922Z" fill="#FFF8F6" stroke="#685A4D" stroke-width="0.59375"/>
<path d="M841.229 130.001L846.44 130.336C849.549 130.536 852.231 128.178 852.431 125.069L852.641 121.812L836.172 120.753L835.963 124.01C835.763 127.119 838.121 129.801 841.229 130.001Z" fill="#FFF8F6" stroke="#685A4D" stroke-width="0.59375"/>
<path d="M836.544 120.182L852.342 121.198C857.314 121.518 861.617 117.827 862.091 112.903L827.939 110.706C827.778 115.65 831.572 119.862 836.544 120.182Z" fill="#FFF8F6" stroke="#685A4D" stroke-width="0.59375"/>
<rect x="820.398" y="163.893" width="43.0976" height="47.53" transform="rotate(3.68108 820.398 163.893)" fill="#FFF8F6" stroke="#685A4D" stroke-width="0.59375"/>
<rect x="825.558" y="172.474" width="5.73833" height="31.6998" rx="2.86916" transform="rotate(3.68108 825.558 172.474)" fill="#685A4D" stroke="#685A4D" stroke-width="0.59375"/>
<rect x="838.195" y="173.287" width="5.73833" height="31.6998" rx="2.86916" transform="rotate(3.68108 838.195 173.287)" fill="#685A4D" stroke="#685A4D" stroke-width="0.59375"/>
<rect x="850.832" y="174.1" width="5.73833" height="31.6998" rx="2.86916" transform="rotate(3.68108 850.832 174.1)" fill="#685A4D" stroke="#685A4D" stroke-width="0.59375"/>
<path d="M821.021 159.491L863.358 162.215C865.887 162.378 867.828 164.483 867.821 166.983L815.984 163.648C816.297 161.168 818.492 159.329 821.021 159.491Z" fill="#FFF8F6" stroke="#685A4D" stroke-width="0.59375"/>
<path d="M859.694 219.126L817.357 216.402C814.828 216.239 812.887 214.134 812.894 211.634L864.731 214.969C864.418 217.449 862.223 219.288 859.694 219.126Z" fill="#FFF8F6" stroke="#685A4D" stroke-width="0.59375"/>
<path d="M834.901 150.867L850.698 151.883C855.67 152.203 859.465 156.415 859.304 161.359L825.152 159.162C825.625 154.238 829.929 150.547 834.901 150.867Z" fill="#FFF8F6" stroke="#685A4D" stroke-width="0.59375"/>
<path d="M840.801 141.729L846.012 142.064C849.12 142.264 851.478 144.946 851.278 148.055L851.069 151.312L834.6 150.252L834.81 146.995C835.01 143.887 837.692 141.529 840.801 141.729Z" fill="#FFF8F6" stroke="#685A4D" stroke-width="0.59375"/>
<path d="M847.381 139.633L847.258 141.549L839.635 141.058L839.759 139.143C839.894 137.038 841.71 135.442 843.815 135.577C845.92 135.713 847.516 137.529 847.381 139.633Z" fill="#FFF8F6" stroke="#685A4D" stroke-width="0.59375"/>
<path d="M840.956 239.474L841.079 237.558L833.457 237.068L833.334 238.984C833.199 241.088 834.795 242.904 836.9 243.04C839.005 243.175 840.821 241.579 840.956 239.474Z" fill="#FFF8F6" stroke="#685A4D" stroke-width="0.59375"/>
<path d="M834.702 236.553L839.913 236.888C843.022 237.088 845.704 234.73 845.904 231.622L846.114 228.365L829.645 227.305L829.435 230.562C829.235 233.671 831.593 236.353 834.702 236.553Z" fill="#FFF8F6" stroke="#685A4D" stroke-width="0.59375"/>
<path d="M830.017 226.734L845.815 227.75C850.787 228.07 855.09 224.379 855.564 219.455L821.411 217.258C821.25 222.202 825.045 226.414 830.017 226.734Z" fill="#FFF8F6" stroke="#685A4D" stroke-width="0.59375"/>
<path d="M26.2104 20.2916C25.9713 20.9947 25.7775 21.6434 25.6333 22.257C25.7409 21.7156 25.8823 21.1335 26.0578 20.4987L26.0616 20.4849L26.064 20.4708C26.472 18.1416 26.671 16.3498 26.6616 14.6317C26.6629 14.6499 26.6642 14.6681 26.6655 14.6863C26.7815 16.364 26.6146 18.0706 26.2104 20.2916Z" fill="#685A4D" stroke="#685A4D" stroke-width="0.59375"/>
<rect x="9.02476" y="67.0214" width="43.0976" height="47.53" transform="rotate(-4.18052 9.02476 67.0214)" fill="#FFF8F6" stroke="#685A4D" stroke-width="0.59375"/>
<rect x="15.3099" y="74.8157" width="5.73833" height="31.6998" rx="2.86916" transform="rotate(-4.18052 15.3099 74.8157)" fill="#685A4D" stroke="#685A4D" stroke-width="0.59375"/>
<rect x="27.9388" y="73.8925" width="5.73833" height="31.6998" rx="2.86916" transform="rotate(-4.18052 27.9388 73.8925)" fill="#685A4D" stroke="#685A4D" stroke-width="0.59375"/>
<rect x="40.5677" y="72.9693" width="5.73833" height="31.6998" rx="2.86916" transform="rotate(-4.18052 40.5677 72.9693)" fill="#685A4D" stroke="#685A4D" stroke-width="0.59375"/>
<path d="M9.03867 62.5762L51.3507 59.4834C53.878 59.2987 56.089 61.1188 56.4237 63.5965L4.61764 67.3831C4.58859 64.8832 6.51139 62.7609 9.03867 62.5762Z" fill="#FFF8F6" stroke="#685A4D" stroke-width="0.59375"/>
<path d="M55.5082 116.36L13.1962 119.453C10.6689 119.637 8.45791 117.817 8.12313 115.34L59.9292 111.553C59.9583 114.053 58.0355 116.175 55.5082 116.36Z" fill="#FFF8F6" stroke="#685A4D" stroke-width="0.59375"/>
<path d="M21.6078 52.134L37.3958 50.9799C42.365 50.6167 46.7003 54.2705 47.217 59.1902L13.0848 61.685C12.8807 56.7425 16.6387 52.4972 21.6078 52.134Z" fill="#FFF8F6" stroke="#685A4D" stroke-width="0.59375"/>
<path d="M26.2051 42.2744L31.4128 41.8938C34.5197 41.6667 37.2225 44.0013 37.4496 47.1082L37.6875 50.3633L21.2286 51.5663L20.9906 48.3113C20.7635 45.2043 23.0981 42.5015 26.2051 42.2744Z" fill="#FFF8F6" stroke="#685A4D" stroke-width="0.59375"/>
<path d="M32.4364 39.2993L32.5763 41.2135L24.9587 41.7703L24.8188 39.8561C24.665 37.7525 26.2456 35.9226 28.3492 35.7689C30.4527 35.6151 32.2827 37.1957 32.4364 39.2993Z" fill="#FFF8F6" stroke="#685A4D" stroke-width="0.59375"/>
<path d="M39.727 139.08L39.587 137.166L31.9694 137.722L32.1093 139.637C32.2631 141.74 34.093 143.321 36.1965 143.167C38.3001 143.013 39.8807 141.183 39.727 139.08Z" fill="#FFF8F6" stroke="#685A4D" stroke-width="0.59375"/>
<path d="M33.1305 137.042L38.3382 136.662C41.4452 136.435 43.7798 133.732 43.5527 130.625L43.3147 127.37L26.8558 128.573L27.0937 131.828C27.3208 134.935 30.0236 137.269 33.1305 137.042Z" fill="#FFF8F6" stroke="#685A4D" stroke-width="0.59375"/>
<path d="M27.1504 127.956L42.9385 126.802C47.9076 126.439 51.6656 122.194 51.4614 117.251L17.3292 119.746C17.846 124.666 22.1813 128.319 27.1504 127.956Z" fill="#FFF8F6" stroke="#685A4D" stroke-width="0.59375"/>
</svg>
