<?xml version="1.0" encoding="utf-8"?>
<!-- Generator: Adobe Illustrator 26.5.0, SVG Export Plug-In . SVG Version: 6.00 Build 0)  -->
<svg version="1.1" id="Layer_1" xmlns="http://www.w3.org/2000/svg" xmlns:xlink="http://www.w3.org/1999/xlink" x="0px" y="0px"
	 viewBox="0 0 138 38" style="enable-background:new 0 0 138 38;" xml:space="preserve">
<style type="text/css">
	.st0{fill:#6AA664;}
	.st1{fill:#FFFFFF;}
</style>
<path class="st0" d="M0,0.1l137.7,1.5v15.9l0.3,19.7H0l16-18.2L0,0.1z"/>
<g>
	<path class="st1" d="M78.7,11.2c0.7,0,1.2-0.2,1.6-0.6c0.4-0.4,0.6-1,0.6-1.7c0-0.7-0.2-1.3-0.6-1.7c-0.4-0.4-1-0.6-1.6-0.6
		c-0.7,0-1.3,0.2-1.7,0.6c-0.4,0.4-0.6,1-0.6,1.7c0,0.7,0.2,1.3,0.6,1.7C77.4,10.9,78,11.2,78.7,11.2z"/>
	<path class="st1" d="M83.9,11.2c0.7,0,1.2-0.2,1.6-0.6c0.4-0.4,0.6-1,0.6-1.7c0-0.7-0.2-1.3-0.6-1.7c-0.4-0.4-1-0.6-1.6-0.6
		c-0.7,0-1.3,0.2-1.7,0.6s-0.6,1-0.6,1.7c0,0.7,0.2,1.3,0.6,1.7C82.6,10.9,83.2,11.2,83.9,11.2z"/>
	<path class="st1" d="M121.7,15.2c-1.2-1.5-2.8-2.3-4.9-2.3c-1.7,0-3,0.5-4,1.4c-1.2,1.1-1.8,2.6-1.8,4.5v2.5c0,0.7-0.1,1.1-0.4,1.4
		c-0.3,0.3-0.7,0.4-1.4,0.4h-1.4h-1.6h-1.1c-0.7,0-1.1-0.1-1.4-0.4c-0.3-0.3-0.4-0.7-0.4-1.4v-0.1c0-2.7-1.1-4.9-3.3-6.3
		c-1.1-0.7-2.3-1.2-3.7-1.4l5.4-6.1h-4.5l-6,6.7v4.3c1.2-0.4,2.3-0.6,3.3-0.6s1.9,0.2,2.7,0.6c1.1,0.6,1.6,1.6,1.6,2.8v0.2
		c0,1.1-0.6,1.6-1.8,1.6h-6.8h-1.6h-1.4c-0.7,0-1.2-0.1-1.4-0.4c-0.3-0.3-0.4-0.7-0.4-1.4v-7.8L81,15.8v5.4c0,0.7-0.1,1.1-0.4,1.4
		c-0.3,0.3-0.7,0.4-1.4,0.4h-1.4h-1.6h-1.4c-0.7,0-1.1-0.1-1.4-0.4c-0.3-0.3-0.4-0.7-0.4-1.4v-0.9c0-2.1-0.5-3.9-1.5-5.2
		c-1.2-1.6-2.8-2.3-4.9-2.3c-1.9,0-3.4,0.6-4.5,1.8c-1.3,1.3-1.9,3.2-1.9,5.7v0.9c0,0.7-0.1,1.1-0.4,1.4c-0.3,0.3-0.7,0.4-1.4,0.4
		h-1.4h-1.7h-1.9c-0.7,0-1.1-0.1-1.4-0.4c-0.3-0.3-0.4-0.7-0.4-1.4V7.4l-4.5,2.4v14.8c0,1.4-0.4,2.4-1.2,3.2S43.9,29,42.5,29
		c-1.4,0-2.6-0.4-3.4-1.2c-0.8-0.8-1.2-2-1.2-3.4c0-1.7,0.4-3.2,1.2-4.5l-4.4,1c-0.7,1.2-1.1,2.6-1.1,4.2c0,2.1,0.6,3.9,1.9,5.4
		c1.7,2,4,2.9,7,2.9c2,0,3.8-0.5,5.4-1.5c1.7-1.1,2.8-2.7,3.4-4.7c0.7,0.2,1.5,0.3,2.2,0.3h1.8h1.7h1.8c1.4,0,2.5-0.3,3.5-1
		c1.1,1.1,2.5,1.6,4.3,1.6c1.8,0,3.2-0.5,4.3-1.6c0.9,0.7,2.1,1,3.5,1h1.8h1.6h1.8c1.4,0,2.6-0.4,3.6-1.1c1,0.7,2.2,1.1,3.6,1.1h1.8
		h1.6h7.3c1.4,0,2.6-0.3,3.6-1c1,0.7,2.2,1,3.6,1h1.5h1.6h1.8c1.3,0,2.5-0.3,3.4-0.9c1,0.6,2.3,0.9,4,0.9c1.7,0,3.2-0.6,4.2-1.8
		c1.3-1.3,1.9-3.2,1.9-5.5C123.2,18.1,122.7,16.5,121.7,15.2z M66.5,23.7c-1.3,0-1.9-1.1-1.9-3.4c0-2.1,0.6-3.2,1.9-3.2
		c1.3,0,2,1.1,2,3.2C68.5,22.5,67.8,23.7,66.5,23.7z M116.8,23c-0.9,0-1.3-0.4-1.3-1.2v-3.2c0-1,0.4-1.5,1.3-1.5
		c1.3,0,1.9,1,1.9,2.9C118.8,22,118.1,23,116.8,23z"/>
</g>
</svg>
