<svg width="992" height="133" viewBox="0 0 992 133" fill="none" xmlns="http://www.w3.org/2000/svg">
<path d="M-7 87.724V-27.9998L998 -28.3574V40.3176C991.961 41.9187 537.45 43.145 530.708 43.145C523.479 43.145 516.555 42.1465 510.15 40.3176C503.456 53.4855 486.816 62.8084 467.35 62.8084C454.15 62.8084 442.252 58.5227 433.877 51.6546C427.727 57.7882 418.087 61.7354 407.244 61.7354C397.125 61.7354 388.053 58.297 381.884 52.8468C373.576 59.2274 362.117 63.166 349.46 63.166C348.017 63.166 346.586 63.1149 345.181 63.0128C342.14 76.9172 327.12 87.6836 308.58 88.8098C307.673 106.751 288.497 121.083 264.984 121.083C252.052 121.083 240.468 116.749 232.475 109.864C227.407 112.22 221.439 113.577 215.091 113.577C207.927 113.577 201.293 111.852 195.837 108.91C189.408 122.482 172.504 132.167 152.664 132.167C129.223 132.167 109.889 118.652 107.069 101.184C105.126 101.341 103.142 101.42 101.143 101.42C95.7038 101.42 90.4451 100.83 85.4716 99.7253C75.1614 108.037 60.6233 113.217 44.5188 113.217C21.6377 113.217 1.93229 102.768 -7 87.724Z" fill="#F26530"/>
<path d="M380.975 77.4681H379.942V-23.7466H380.975V77.4681Z" fill="#F26530"/>
<path d="M388.645 10.019L390.222 13.1124L393.75 13.6102L391.197 16.0185L391.799 19.4196L388.645 17.8167L385.489 19.4196L386.092 16.0185L383.538 13.6102L387.066 13.1124L388.645 10.019Z" fill="#EBE6E0"/>
<path d="M18.1929 54.2041L16.616 57.3002L13.0881 57.7952L15.6419 60.2036L15.0391 63.6073L18.1929 62.0018L21.3494 63.6073L20.7466 60.2036L23.3004 57.7952L19.7725 57.3002L18.1929 54.2041Z" fill="white"/>
<path d="M155.105 95L153.528 98.0961L150 98.5911L152.554 100.999L151.951 104.403L155.105 102.798L158.261 104.403L157.659 100.999L160.212 98.5911L156.684 98.0961L155.105 95Z" fill="white"/>
<path d="M470.276 27.4878L468.699 30.5839L465.171 31.0816L467.725 33.4872L467.122 36.891L470.276 35.2855L473.43 36.891L472.83 33.4872L475.381 31.0816L471.853 30.5839L470.276 27.4878Z" fill="white"/>
<path d="M372.717 116.713L372.682 117.254C372.679 117.278 372.558 119.507 374.622 120.949C378.779 120.173 380.502 116.986 380.572 116.852L381.521 115.014L382.471 116.852C382.49 116.887 384.048 119.828 387.775 120.808C389.605 119.389 389.524 117.342 389.522 117.254L389.484 116.713L393.332 113.794L393.233 113.352H388.663L388.655 112.33C388.655 112.242 388.585 103.489 388.655 99.3412C388.674 98.1049 388.951 97.1148 389.368 96.3254L388.133 90.8798H383.529V87.8801L383.801 87.5884C384.239 87.1094 384.737 86.4164 384.608 85.8437C384.465 85.2149 383.61 84.8295 383.61 84.8295L383.289 84.6957L381.979 82.5282L381.102 81.0752L380.222 82.5282L378.917 84.6957L378.591 84.8295C378.583 84.8322 377.743 85.2149 377.598 85.8357C377.466 86.411 377.961 87.1068 378.403 87.5884L378.672 87.8801V90.8798H374.07L372.835 96.3254C373.252 97.1148 373.529 98.1049 373.548 99.3412C373.621 103.489 373.548 112.242 373.548 112.33L373.54 113.352H368.971L368.871 113.794L372.717 116.713ZM380.025 126.574L380.868 126.748V127.583C380.868 127.917 380.862 128.215 380.854 128.471H381.349C381.341 128.215 381.336 127.917 381.336 127.583V126.748L382.178 126.574C384.848 126.028 386.201 123.748 386.519 122.584C384.054 121.766 382.439 120.262 381.521 119.154C380.515 120.374 378.658 122.071 375.752 122.812C376.175 124.021 377.523 126.06 380.025 126.574ZM390.752 102.421C390.738 105.638 390.762 109.494 390.773 111.295H392.764L390.752 102.421ZM371.449 102.421L369.439 111.295H371.43C371.441 109.494 371.465 105.638 371.449 102.421ZM366.794 113.352L367.262 111.295L370.572 96.6947L371.094 94.3987L372.361 88.822H376.546V88.6454C375.623 87.5269 375.278 86.4324 375.523 85.3808C375.817 84.1284 376.858 83.4059 377.418 83.1009L378.317 81.6104L379.428 79.7693L381.102 76.9971L382.775 79.7667L383.887 81.6077L384.788 83.1009C385.348 83.4059 386.389 84.1284 386.677 85.3808C386.925 86.4324 386.581 87.5269 385.658 88.6454V88.822H389.842L391.107 94.3987L391.629 96.6973L394.941 111.295L395.41 113.352L395.698 114.615L391.634 117.698C391.572 118.514 391.3 120.053 390.127 121.442C389.74 121.902 389.258 122.344 388.65 122.74C388.628 122.849 388.599 122.967 388.569 123.09C388.096 124.781 386.521 127.38 383.472 128.364C383.489 129.031 383.526 129.395 383.526 129.4L383.642 130.532H378.564L378.674 129.403C378.677 129.397 378.715 129.031 378.731 128.364C375.838 127.428 374.272 125.044 373.718 123.355C373.645 123.138 373.588 122.93 373.551 122.74C373.069 122.426 372.668 122.081 372.332 121.725C370.943 120.264 370.634 118.57 370.569 117.698L366.509 114.615L366.794 113.352Z" fill="#F26530"/>
<path d="M390.773 111.295H392.765L390.752 102.421C390.738 105.638 390.763 109.494 390.773 111.295Z" fill="#9D8C7E"/>
<path d="M369.439 111.295H371.431C371.441 109.494 371.466 105.638 371.449 102.421L369.439 111.295Z" fill="#9D8C7E"/>
<path d="M375.752 122.812C376.175 124.022 377.523 126.061 380.025 126.575L380.868 126.749V127.584C380.868 127.918 380.862 128.215 380.854 128.472H381.349C381.341 128.215 381.336 127.918 381.336 127.584V126.749L382.178 126.575C384.848 126.029 386.201 123.749 386.519 122.585C384.054 121.766 382.439 120.262 381.522 119.154C380.515 120.375 378.658 122.071 375.752 122.812Z" fill="#9D8C7E"/>
<path d="M376.672 112.331L376.681 113.353H385.523L385.531 112.331C385.531 112.242 385.598 103.489 385.528 99.3416C385.464 95.3411 382.706 93.8881 381.261 93.674L381.102 93.6526L380.943 93.674C379.495 93.8881 376.742 95.3411 376.672 99.3416C376.603 103.489 376.672 112.242 376.672 112.331ZM372.717 116.714L368.871 113.794L368.971 113.353H373.54L373.548 112.331C373.548 112.242 373.621 103.489 373.548 99.3416C373.529 98.1054 373.252 97.1153 372.835 96.3259L374.07 90.8803H378.672V87.8806L378.403 87.5889C377.961 87.1072 377.466 86.4115 377.598 85.8362C377.743 85.2154 378.583 84.8327 378.591 84.83L378.917 84.6962L380.222 82.5287L381.102 81.0757L381.979 82.5287L383.29 84.6962L383.61 84.83C383.61 84.83 384.466 85.2154 384.608 85.8442C384.737 86.4169 384.239 87.1099 383.801 87.5889L383.529 87.8806V90.8803H388.133L389.368 96.3259C388.951 97.1153 388.674 98.1054 388.655 99.3416C388.585 103.489 388.655 112.242 388.655 112.331L388.663 113.353H393.233L393.332 113.794L389.484 116.714L389.522 117.254C389.525 117.343 389.605 119.39 387.775 120.808C384.048 119.829 382.49 116.888 382.472 116.853L381.522 115.015L380.572 116.853C380.502 116.987 378.779 120.174 374.622 120.95C372.558 119.508 372.679 117.278 372.682 117.254L372.717 116.714Z" fill="white"/>
<path d="M378.79 111.295H383.414C383.427 108.857 383.462 102.657 383.406 99.3735C383.357 96.5798 381.656 95.8948 381.099 95.7449C380.553 95.8894 378.847 96.5611 378.799 99.3735C378.745 102.657 378.777 108.857 378.79 111.295ZM376.673 99.3414C376.743 95.3409 379.496 93.8878 380.943 93.6738L381.102 93.6523L381.261 93.6738C382.706 93.8878 385.464 95.3409 385.529 99.3414C385.599 103.489 385.531 112.242 385.531 112.33L385.523 113.353H376.681L376.673 112.33C376.673 112.242 376.603 103.489 376.673 99.3414Z" fill="#F26530"/>
<path d="M378.79 111.295H383.414C383.427 108.857 383.462 102.657 383.406 99.3737C383.357 96.58 381.656 95.895 381.099 95.7451C380.553 95.8896 378.847 96.5613 378.799 99.3737C378.745 102.657 378.777 108.857 378.79 111.295Z" fill="#9D8C7E"/>
<path d="M376.85 78.5013C376.85 79.7403 377.418 80.8535 378.317 81.6108L379.428 79.7697C379.143 79.4192 378.976 78.9803 378.976 78.5013C378.976 77.3694 379.931 76.4462 381.102 76.4462C382.275 76.4462 383.225 77.3694 383.225 78.5013C383.225 78.9777 383.058 79.4192 382.776 79.7671L383.887 81.6081C384.786 80.8535 385.354 79.7403 385.354 78.5013C385.354 76.2321 383.446 74.3857 381.102 74.3857C378.755 74.3857 376.85 76.2321 376.85 78.5013Z" fill="#F26530"/>
<path d="M236.686 87.8781C231.507 83.4394 228.63 77.4225 228.126 71.2172C226.128 82.4614 229.981 94.3892 239.412 102.474C253.947 114.936 276.223 113.56 289.171 99.4008C302.12 85.2439 300.836 63.6654 286.304 51.2057C276.873 43.1183 264.182 40.8607 252.893 44.1414C259.314 43.87 265.832 45.9096 271.011 50.3482C281.647 59.4682 282.587 75.2647 273.109 85.6284C263.632 95.9921 247.324 97.0004 236.686 87.8781Z" fill="white"/>
<path d="M248.254 58.6352L247.104 63.9197L241.983 66.0533L246.788 68.6853L247.233 74.0493L251.351 70.3899L256.747 71.5704L254.485 66.6798L257.378 62.0424L251.862 62.6799L248.254 58.6352Z" fill="white"/>
</svg>
