<svg width="123" height="144" viewBox="0 0 123 144" fill="none" xmlns="http://www.w3.org/2000/svg">
<g filter="url(#filter0_di_326_14062)">
<mask id="path-1-inside-1_326_14062" fill="white">
<path fill-rule="evenodd" clip-rule="evenodd" d="M74.0306 0.859908C69.2813 2.06625 64.6101 3.86826 60.1132 6.29612C29.8892 22.614 18.9835 61.0244 35.7547 92.088C52.4256 122.966 90.1683 134.962 120.304 119.077C115.738 123.589 110.461 127.536 104.527 130.74C70.9446 148.871 29.0227 136.345 10.8916 102.763C-7.23939 69.1809 5.28632 27.259 38.8686 9.12795C50.0595 3.086 62.1765 0.448403 74.0306 0.859908Z"/>
</mask>
<path fill-rule="evenodd" clip-rule="evenodd" d="M74.0306 0.859908C69.2813 2.06625 64.6101 3.86826 60.1132 6.29612C29.8892 22.614 18.9835 61.0244 35.7547 92.088C52.4256 122.966 90.1683 134.962 120.304 119.077C115.738 123.589 110.461 127.536 104.527 130.74C70.9446 148.871 29.0227 136.345 10.8916 102.763C-7.23939 69.1809 5.28632 27.259 38.8686 9.12795C50.0595 3.086 62.1765 0.448403 74.0306 0.859908Z" fill="#FFD4CA"/>
<path d="M74.0306 0.859908L74.7614 3.73729L74.1336 -2.10706L74.0306 0.859908ZM120.304 119.077L122.391 121.189L118.92 116.451L120.304 119.077ZM61.5236 8.90845C65.8038 6.59761 70.2465 4.88411 74.7614 3.73729L73.2997 -2.01747C68.3161 -0.751609 63.4165 1.13891 58.7028 3.68379L61.5236 8.90845ZM38.367 90.6776C22.3381 60.9888 32.8093 24.4113 61.5236 8.90845L58.7028 3.68379C26.969 20.8168 15.6289 61.06 33.1424 93.4984L38.367 90.6776ZM118.92 116.451C90.2892 131.542 54.2999 120.188 38.367 90.6776L33.1424 93.4984C50.5514 125.743 90.0474 138.381 121.689 121.703L118.92 116.451ZM118.217 116.965C113.85 121.282 108.8 125.059 103.116 128.128L105.937 133.352C112.122 130.013 117.626 125.897 122.391 121.189L118.217 116.965ZM103.116 128.128C70.977 145.48 30.8561 133.492 13.504 101.353L8.27931 104.174C27.1893 139.199 70.9123 152.262 105.937 133.352L103.116 128.128ZM13.504 101.353C-3.84812 69.2133 8.13946 29.0924 40.279 11.7403L37.4582 6.51562C2.43317 25.4256 -10.6307 69.1486 8.27931 104.174L13.504 101.353ZM40.279 11.7403C50.9934 5.95558 62.5861 3.43316 73.9276 3.82687L74.1336 -2.10706C61.7668 -2.53636 49.1256 0.216419 37.4582 6.51562L40.279 11.7403Z" fill="#F26530" mask="url(#path-1-inside-1_326_14062)"/>
</g>
<defs>
<filter id="filter0_di_326_14062" x="0.207031" y="0.818359" width="122.473" height="142.981" filterUnits="userSpaceOnUse" color-interpolation-filters="sRGB">
<feFlood flood-opacity="0" result="BackgroundImageFix"/>
<feColorMatrix in="SourceAlpha" type="matrix" values="0 0 0 0 0 0 0 0 0 0 0 0 0 0 0 0 0 0 127 0" result="hardAlpha"/>
<feOffset dy="2.375"/>
<feGaussianBlur stdDeviation="1.1875"/>
<feComposite in2="hardAlpha" operator="out"/>
<feColorMatrix type="matrix" values="0 0 0 0 0 0 0 0 0 0 0 0 0 0 0 0 0 0 0.25 0"/>
<feBlend mode="normal" in2="BackgroundImageFix" result="effect1_dropShadow_326_14062"/>
<feBlend mode="normal" in="SourceGraphic" in2="effect1_dropShadow_326_14062" result="shape"/>
<feColorMatrix in="SourceAlpha" type="matrix" values="0 0 0 0 0 0 0 0 0 0 0 0 0 0 0 0 0 0 127 0" result="hardAlpha"/>
<feOffset dx="10.6875" dy="2.375"/>
<feGaussianBlur stdDeviation="1.1875"/>
<feComposite in2="hardAlpha" operator="arithmetic" k2="-1" k3="1"/>
<feColorMatrix type="matrix" values="0 0 0 0 0 0 0 0 0 0 0 0 0 0 0 0 0 0 0.25 0"/>
<feBlend mode="normal" in2="shape" result="effect2_innerShadow_326_14062"/>
</filter>
</defs>
</svg>
