<?xml version="1.0" encoding="utf-8"?>
<!-- Generator: Adobe Illustrator 26.5.0, SVG Export Plug-In . SVG Version: 6.00 Build 0)  -->
<svg version="1.1" id="Layer_1" xmlns="http://www.w3.org/2000/svg" xmlns:xlink="http://www.w3.org/1999/xlink" x="0px" y="0px"
	 viewBox="0 0 75 87.8" style="enable-background:new 0 0 75 87.8;" xml:space="preserve">
<style type="text/css">
	.st0{fill-rule:evenodd;clip-rule:evenodd;fill:#FFD4CA;}
	.st1{fill-rule:evenodd;clip-rule:evenodd;fill:#FFFFFF;filter:url(#Adobe_OpacityMaskFilter);}
	.st2{mask:url(#path-1-inside-1_326_14062_00000033364240307116644620000014702853301034079672_);fill:#F26530;}
</style>
<g>
	<path class="st0" d="M45.5,1.8c-2.9,0.7-5.8,1.8-8.5,3.3c-18.5,10-25.1,33.4-14.9,52.4c10.2,18.9,33.2,26.2,51.6,16.5
		c-2.8,2.8-6,5.2-9.6,7.1C43.6,92.3,18,84.6,6.9,64.1C-4.2,43.6,3.5,18,24,6.9C30.8,3.2,38.2,1.6,45.5,1.8z"/>
	<defs>
		<filter id="Adobe_OpacityMaskFilter" filterUnits="userSpaceOnUse" x="0" y="0" width="75" height="88.1">
			<feColorMatrix  type="matrix" values="1 0 0 0 0  0 1 0 0 0  0 0 1 0 0  0 0 0 1 0"/>
		</filter>
	</defs>
	
		<mask maskUnits="userSpaceOnUse" x="0" y="0" width="75" height="88.1" id="path-1-inside-1_326_14062_00000033364240307116644620000014702853301034079672_">
		<path class="st1" d="M45.5,1.8c-2.9,0.7-5.8,1.8-8.5,3.3c-18.5,10-25.1,33.4-14.9,52.4c10.2,18.9,33.2,26.2,51.6,16.5
			c-2.8,2.8-6,5.2-9.6,7.1C43.6,92.3,18,84.6,6.9,64.1C-4.2,43.6,3.5,18,24,6.9C30.8,3.2,38.2,1.6,45.5,1.8z"/>
	</mask>
	<path class="st2" d="M45.5,1.8l0.4,1.8L45.5,0L45.5,1.8z M73.7,74.1l1.3,1.3l-2.1-2.9L73.7,74.1z M37.8,6.8
		c2.6-1.4,5.3-2.5,8.1-3.2L45,0.1c-3,0.8-6,1.9-8.9,3.5L37.8,6.8z M23.7,56.7c-9.8-18.1-3.4-40.5,14.1-49.9l-1.7-3.2
		C16.7,14,9.8,38.6,20.5,58.4L23.7,56.7z M72.9,72.4c-17.5,9.2-39.5,2.3-49.2-15.7l-3.2,1.7c10.6,19.7,34.8,27.4,54.1,17.2
		L72.9,72.4z M72.5,72.8c-2.7,2.6-5.8,4.9-9.2,6.8l1.7,3.2c3.8-2,7.1-4.6,10.1-7.4L72.5,72.8z M63.2,79.6
		C43.6,90.2,19.1,82.9,8.5,63.2l-3.2,1.7c11.6,21.4,38.3,29.4,59.7,17.8L63.2,79.6z M8.5,63.2C-2.1,43.6,5.2,19.1,24.8,8.5l-1.7-3.2
		C1.7,16.8-6.3,43.6,5.3,64.9L8.5,63.2z M24.8,8.5C31.4,5,38.5,3.4,45.4,3.7L45.5,0C38-0.2,30.2,1.4,23.1,5.3L24.8,8.5z"/>
</g>
</svg>
