<?xml version="1.0" encoding="utf-8"?>
<!-- Generator: Adobe Illustrator 26.5.0, SVG Export Plug-In . SVG Version: 6.00 Build 0)  -->
<svg version="1.1" id="Layer_1" xmlns="http://www.w3.org/2000/svg" xmlns:xlink="http://www.w3.org/1999/xlink" x="0px" y="0px"
	 viewBox="0 0 954 293" style="enable-background:new 0 0 954 293;" xml:space="preserve">
<style type="text/css">
	.st0{fill:#FFF8F6;}
	.st1{fill:url(#SVGID_1_);}
	.st2{fill:url(#SVGID_00000134213846244598828540000002971329611658900382_);}
</style>
<g>
	<path class="st0" d="M944.6,285.5c-0.2-1.5-2.1-13.9-13.5-27.8c-16.2-19.7-44-33.4-80.5-39.7l-4-0.7l0.3-4.1
		c3.8-45.6-16.4-78.8-61.7-101.5c-39.9-20-91.5-28.6-137.1-36.2c-29.2-4.9-54.4-9-71.8-15.5c-59.6-22.1-90.7-42.2-99.7-48.4
		c-8.9,6.2-40.1,26.3-99.7,48.4c-17.4,6.5-42.8,10.7-72.1,15.5c-45.7,7.6-97.6,16.2-137.6,36.2c-45.5,22.8-65.8,56-62,101.5l0.3,4.1
		l-4,0.7c-36.4,6.3-63.9,20-79.5,39.6c-11.1,14-12.5,26.5-12.7,27.8v7.6h935.2V285.5z"/>
	
		<linearGradient id="SVGID_1_" gradientUnits="userSpaceOnUse" x1="477.0036" y1="1020.6501" x2="477.0036" y2="341.149" gradientTransform="matrix(1 0 0 -1 0 976)">
		<stop  offset="0" style="stop-color:#685A4D"/>
		<stop  offset="1" style="stop-color:#86725D"/>
	</linearGradient>
	<path class="st1" d="M5,285.2c0,0,3.2-55.7,95.9-71.6C89,72.2,304.9,82.1,375.5,55.8C446.1,29.6,476.7,6.1,476.7,6.1
		s30.6,23.5,101.2,49.7c70.6,26.2,285.3,16.4,273.5,157.8c92.7,15.9,97.7,71.6,97.7,71.6v7.8h4.5v-7.8l0-0.4
		c-0.1-0.6-1.5-15.5-15.1-32.2c-11.9-14.7-35.7-33.8-82.3-42.6c1.3-24.6-4.1-46.2-16.2-64.2c-11.2-16.7-27.8-30.5-50.6-41.9
		c-41.1-20.6-93.4-29.3-139.6-37c-28.7-4.8-53.5-8.9-70.2-15.1c-68.9-25.6-99.7-48.9-100-49.1l-2.7-2.1L474,2.6
		c-0.3,0.2-31.1,23.5-100,49.1c-16.6,6.2-41.6,10.3-70.4,15.1c-46.3,7.7-98.9,16.4-140.2,37c-23,11.5-39.6,25.2-50.9,41.9
		c-12.2,18.1-17.7,39.7-16.3,64.2c-46.6,8.8-70,28-81.5,42.7C1.6,269.5,0.6,284.3,0.5,285l0,8H5V285.2z"/>
	<path class="st0" d="M851.4,213.6C863.2,72.2,648.5,82.1,577.9,55.8C507.3,29.6,476.7,6.1,476.7,6.1s-30.6,23.5-101.2,49.7
		C304.9,82.1,89,72.2,100.9,213.6C8.2,229.5,5,285.2,5,285.2v7.8h4.5v-7.6c0.1-1.3,1.5-13.8,12.7-27.8
		c15.6-19.7,43.1-33.3,79.5-39.6l4-0.7l-0.3-4.1c-3.8-45.5,16.5-78.7,62-101.5c40.1-20,91.9-28.6,137.6-36.2
		c29.3-4.9,54.6-9.1,72.1-15.5c59.6-22.1,90.7-42.2,99.7-48.4c8.9,6.2,40.1,26.3,99.7,48.4c17.4,6.5,42.6,10.7,71.8,15.5
		c45.5,7.6,97.2,16.2,137.1,36.2c45.3,22.8,65.5,56,61.7,101.5l-0.3,4.1l4,0.7c36.5,6.3,64.3,20,80.5,39.7
		c11.4,13.9,13.3,26.3,13.5,27.8v7.5h4.5v-7.8C949,285.2,944,229.5,851.4,213.6z"/>
	
		<linearGradient id="SVGID_00000098206087644440865190000016056477615237340070_" gradientUnits="userSpaceOnUse" x1="476.9999" y1="1020.6501" x2="476.9999" y2="341.149" gradientTransform="matrix(1 0 0 -1 0 976)">
		<stop  offset="0" style="stop-color:#685A4D"/>
		<stop  offset="1" style="stop-color:#86725D"/>
	</linearGradient>
	<path style="fill:url(#SVGID_00000098206087644440865190000016056477615237340070_);" d="M851.4,213.6
		C863.2,72.2,648.5,82.1,577.9,55.8C507.3,29.6,476.7,6.1,476.7,6.1s-30.6,23.5-101.2,49.7C304.9,82.1,89,72.2,100.9,213.6
		C8.2,229.5,5,285.2,5,285.2v7.8h4.5v-7.6c0.1-1.3,1.5-13.8,12.7-27.8c15.6-19.7,43.1-33.3,79.5-39.6l4-0.7l-0.3-4.1
		c-3.8-45.5,16.5-78.7,62-101.5c40.1-20,91.9-28.6,137.6-36.2c29.3-4.9,54.6-9.1,72.1-15.5c59.6-22.1,90.7-42.2,99.7-48.4
		c8.9,6.2,40.1,26.3,99.7,48.4c17.4,6.5,42.6,10.7,71.8,15.5c45.5,7.6,97.2,16.2,137.1,36.2c45.3,22.8,65.5,56,61.7,101.5l-0.3,4.1
		l4,0.7c36.5,6.3,64.3,20,80.5,39.7c11.4,13.9,13.3,26.3,13.5,27.8v7.5h4.5v-7.8C949,285.2,944,229.5,851.4,213.6z"/>
</g>
</svg>
