<svg width="115" height="57" viewBox="0 0 115 57" fill="none" xmlns="http://www.w3.org/2000/svg">
<path d="M36.3097 26.1023C36.2866 22.1628 38.2019 19.1893 42.0786 16.9995C39.9095 14.1119 36.6328 12.5232 32.3061 12.2119C28.2101 11.9114 23.7334 14.434 22.095 14.434C20.3644 14.434 16.3953 12.3193 13.2801 12.3193C6.84196 12.4159 0 17.0961 0 26.6176C0 29.43 0.553818 32.3355 1.66145 35.334C3.1383 39.2735 8.4688 48.9345 14.0301 48.7735C16.9376 48.7091 18.9913 46.852 22.7758 46.852C26.4448 46.852 28.3486 48.7735 31.5907 48.7735C37.1981 48.6984 42.021 39.9176 43.4286 35.9673C35.9059 32.6718 36.3097 26.3063 36.3097 26.1023ZM29.7793 8.47633C32.9291 4.99837 32.6407 1.8317 32.5484 0.693848C29.7677 0.84413 26.5487 2.4543 24.7141 4.44017C22.695 6.5656 21.5066 9.19554 21.7604 12.1583C24.7718 12.3729 27.5178 10.9345 29.7793 8.47633Z" fill="black"/>
<path d="M66.8998 23.3422C66.8998 25.5012 66.1554 27.3004 64.6664 28.7397C63.2022 30.1543 60.9563 30.8615 57.9287 30.8615H52.9407V41.6938H49.5532V15.7484H57.9287C60.8571 15.7484 63.0781 16.4556 64.5919 17.8702C66.1305 19.2847 66.8998 21.1087 66.8998 23.3422ZM57.9287 28.0697C59.8148 28.0697 61.2045 27.6602 62.0979 26.8413C62.9913 26.0223 63.438 24.856 63.438 23.3422C63.438 20.1409 61.6016 18.5402 57.9287 18.5402H52.9407V28.0697H57.9287ZM69.8444 31.4199C69.8444 29.3353 70.2662 27.5113 71.11 25.9479C71.9538 24.3596 73.1077 23.1312 74.5719 22.2627C76.0609 21.3941 77.7111 20.9598 79.5227 20.9598C81.3095 20.9598 82.8605 21.3445 84.1758 22.1138C85.4911 22.8831 86.4713 23.8509 87.1165 25.0173V21.2948H90.5412V41.6938H87.1165V37.8969C86.4465 39.0881 85.4414 40.0808 84.1013 40.8749C82.7861 41.6442 81.2475 42.0289 79.4855 42.0289C77.6739 42.0289 76.036 41.5822 74.5719 40.6888C73.1077 39.7954 71.9538 38.5422 71.11 36.9291C70.2662 35.3161 69.8444 33.4796 69.8444 31.4199ZM87.1165 31.4571C87.1165 29.9185 86.8063 28.5784 86.1859 27.4369C85.5655 26.2953 84.7218 25.4267 83.6546 24.8312C82.6124 24.2107 81.4584 23.9005 80.1928 23.9005C78.9271 23.9005 77.7732 24.1983 76.7309 24.7939C75.6886 25.3895 74.8573 26.2581 74.2369 27.3996C73.6164 28.5412 73.3062 29.8813 73.3062 31.4199C73.3062 32.9833 73.6164 34.3482 74.2369 35.5146C74.8573 36.6561 75.6886 37.5371 76.7309 38.1575C77.7732 38.7531 78.9271 39.0509 80.1928 39.0509C81.4584 39.0509 82.6124 38.7531 83.6546 38.1575C84.7218 37.5371 85.5655 36.6561 86.1859 35.5146C86.8063 34.3482 87.1165 32.9957 87.1165 31.4571ZM113.836 21.2948L101.551 51.2978H98.0524L102.073 41.4705L93.846 21.2948H97.6057L104.008 37.8225L110.336 21.2948H113.836Z" fill="black"/>
</svg>
