<svg width="94" height="29" viewBox="0 0 94 29" fill="none" xmlns="http://www.w3.org/2000/svg">
<path fill-rule="evenodd" clip-rule="evenodd" d="M72.8949 25.0976C70.6635 27.148 67.769 28.3858 64.6061 28.3858C57.549 28.3858 51.8281 22.224 51.8281 14.623C51.8281 7.02196 57.549 0.860138 64.6061 0.860138C67.769 0.860138 70.6635 2.09791 72.8949 4.14827C75.1262 2.09791 78.0207 0.860138 81.1837 0.860138C88.2407 0.860138 93.9616 7.02196 93.9616 14.623C93.9616 22.224 88.2407 28.3858 81.1837 28.3858C78.0207 28.3858 75.1262 27.148 72.8949 25.0976Z" fill="#ED0006"/>
<path fill-rule="evenodd" clip-rule="evenodd" d="M72.8945 25.0976C75.6417 22.5733 77.3837 18.8172 77.3837 14.623C77.3837 10.4287 75.6417 6.67263 72.8945 4.14827C75.1259 2.09791 78.0204 0.860138 81.1833 0.860138C88.2404 0.860138 93.9613 7.02196 93.9613 14.623C93.9613 22.224 88.2404 28.3858 81.1833 28.3858C78.0204 28.3858 75.1259 27.148 72.8945 25.0976Z" fill="#F9A000"/>
<path fill-rule="evenodd" clip-rule="evenodd" d="M72.8993 25.0977C75.6465 22.5733 77.3884 18.8173 77.3884 14.623C77.3884 10.4287 75.6465 6.67265 72.8993 4.1483C70.1521 6.67265 68.4102 10.4287 68.4102 14.623C68.4102 18.8173 70.1521 22.5733 72.8993 25.0977Z" fill="#FF5E00"/>
<path fill-rule="evenodd" clip-rule="evenodd" d="M12.009 23.3063H8.03855L5.06121 11.2124C4.9199 10.6561 4.61984 10.1643 4.17847 9.93251C3.07697 9.34999 1.86319 8.88639 0.539062 8.65258V8.18697H6.93512C7.81787 8.18697 8.47993 8.88639 8.59027 9.69869L10.1351 18.4224L14.1036 8.18697H17.9637L12.009 23.3063Z" fill="#172B85"/>
<path fill-rule="evenodd" clip-rule="evenodd" d="M20.1716 23.3063H16.4219L19.5096 8.18697H23.2593L20.1716 23.3063Z" fill="#172B85"/>
<path fill-rule="evenodd" clip-rule="evenodd" d="M28.1071 12.3755C28.2174 11.5612 28.8795 11.0956 29.6519 11.0956C30.8656 10.9787 32.1878 11.2125 33.2913 11.793L33.9533 8.53771C32.8499 8.0721 31.6361 7.83829 30.5346 7.83829C26.8952 7.83829 24.247 9.93254 24.247 12.8391C24.247 15.0502 26.1228 16.2113 27.4469 16.9107C28.8795 17.6081 29.4312 18.0737 29.3208 18.7711C29.3208 19.8172 28.2174 20.2828 27.1159 20.2828C25.7918 20.2828 24.4677 19.9341 23.2558 19.3516L22.5938 22.6089C23.9179 23.1894 25.3504 23.4232 26.6745 23.4232C30.7553 23.5381 33.2913 21.4459 33.2913 18.3055C33.2913 14.3508 28.1071 14.119 28.1071 12.3755Z" fill="#172B85"/>
<path fill-rule="evenodd" clip-rule="evenodd" d="M46.4171 23.3063L43.4397 8.18697H40.2417C39.5797 8.18697 38.9176 8.65258 38.6969 9.34999L33.1836 23.3063H37.0437L37.8142 21.0971H42.557L42.9984 23.3063H46.4171Z" fill="#172B85"/>
<path fill-rule="evenodd" clip-rule="evenodd" d="M40.7948 12.2586L41.8963 17.9568H38.8086L40.7948 12.2586Z" fill="white"/>
</svg>
