<?xml version="1.0" encoding="utf-8"?>
<!-- Generator: Adobe Illustrator 26.5.0, SVG Export Plug-In . SVG Version: 6.00 Build 0)  -->
<svg version="1.1" id="Layer_1" xmlns="http://www.w3.org/2000/svg" xmlns:xlink="http://www.w3.org/1999/xlink" x="0px" y="0px"
	 viewBox="0 0 43 44" style="enable-background:new 0 0 43 44;" xml:space="preserve">
<style type="text/css">
	.st0{fill:#FFFFFF;}
	.st1{fill-rule:evenodd;clip-rule:evenodd;fill:#6AA664;}
</style>
<path class="st0" d="M1.7,33.9c0-11.3,9.3-20.4,20.7-20.4l0,0c11.4,0,20.7,9.2,20.7,20.4v10.4H1.7V33.9z"/>
<path d="M43.1,44.3v0.6h0.6v-0.6H43.1z M1.7,44.3H1.1v0.6h0.6V44.3z M42.5,33.9v10.4h1.2V33.9H42.5z M43.1,43.7H1.7v1.2h41.4
	C43.1,44.9,43.1,43.7,43.1,43.7z M2.3,44.3V33.9H1.1v10.4C1.1,44.3,2.3,44.3,2.3,44.3z M22.4,14.1c11.1,0,20.1,8.9,20.1,19.9h1.2
	c0-11.6-9.5-21-21.3-21C22.4,13,22.4,14.1,22.4,14.1z M22.4,12.9c-11.8,0-21.3,9.4-21.3,21h1.2c0-11,9-19.9,20.1-19.9
	C22.4,14,22.4,12.9,22.4,12.9z"/>
<path class="st0" d="M1.7,33.9c0-11.3,9.3-20.4,20.7-20.4l0,0c11.4,0,20.7,9.2,20.7,20.4v10.4H1.7V33.9z"/>
<path d="M43.1,44.3v0.6h0.6v-0.6H43.1z M1.7,44.3H1.1v0.6h0.6V44.3z M42.5,33.9v10.4h1.2V33.9H42.5z M43.1,43.7H1.7v1.2h41.4
	C43.1,44.9,43.1,43.7,43.1,43.7z M2.3,44.3V33.9H1.1v10.4C1.1,44.3,2.3,44.3,2.3,44.3z M22.4,14.1c11.1,0,20.1,8.9,20.1,19.9h1.2
	c0-11.6-9.5-21-21.3-21C22.4,13,22.4,14.1,22.4,14.1z M22.4,12.9c-11.8,0-21.3,9.4-21.3,21h1.2c0-11,9-19.9,20.1-19.9
	C22.4,14,22.4,12.9,22.4,12.9z"/>
<path class="st1" d="M23.4,8.6c-0.2,0-0.4,0-0.6-0.1c-0.2,0-0.4-0.1-0.6-0.2C22,8.2,21.8,8.1,21.7,8c-0.2-0.1-0.3-0.2-0.5-0.4
	S21,7.4,20.9,7.2c-0.1-0.2-0.2-0.3-0.3-0.5c-0.1-0.2-0.1-0.4-0.2-0.6c0-0.2-0.1-0.4-0.1-0.6s0-0.4,0.1-0.6c0-0.2,0.1-0.4,0.2-0.6
	s0.2-0.4,0.3-0.5c0.1-0.2,0.2-0.3,0.4-0.5c0.1-0.1,0.3-0.3,0.5-0.4c0.2-0.1,0.3-0.2,0.5-0.3s0.4-0.1,0.6-0.2c0.2,0,0.4-0.1,0.6-0.1
	c-0.2,0-0.3-0.1-0.5-0.1s-0.3,0-0.5-0.1c-0.2,0-0.3,0-0.5,0s-0.3,0-0.5,0.1c-0.2,0-0.3,0.1-0.5,0.1c-0.2,0.1-0.3,0.1-0.5,0.2
	c-0.2,0.1-0.3,0.1-0.5,0.2c-0.1,0.1-0.3,0.2-0.4,0.3s-0.3,0.2-0.4,0.3S19,3.5,18.8,3.7c-0.1,0.1-0.2,0.3-0.3,0.4
	c-0.1,0.1-0.2,0.3-0.3,0.4C18.1,4.8,18,5,17.9,5.1c-0.1,0.2-0.1,0.3-0.1,0.5s-0.1,0.3-0.1,0.5s0,0.3,0,0.5c0,0.3,0,0.6,0.1,0.9
	s0.2,0.6,0.3,0.9c0.1,0.3,0.3,0.5,0.4,0.8c0.2,0.2,0.4,0.5,0.6,0.7s0.5,0.4,0.7,0.5c0.3,0.2,0.5,0.3,0.8,0.4
	c0.3,0.1,0.6,0.2,0.9,0.2c0.1,0,0.2,0,0.3,0c-0.3,0.1-0.6,0.4-0.6,0.8c0,0.5,0.4,0.9,0.9,0.9c-11.3,0-20.4,9-20.4,20.2v10.8h40.9
	V32.9c0-11.1-9.1-20.2-20.4-20.2c0.5,0,0.9-0.4,0.9-0.9c0-0.4-0.2-0.7-0.6-0.8l0,0c0.3,0,0.6-0.1,0.9-0.2c0.3-0.1,0.6-0.2,0.9-0.3
	s0.5-0.3,0.8-0.5c0.2-0.2,0.5-0.4,0.6-0.6c0.2-0.2,0.4-0.5,0.5-0.8s0.2-0.6,0.3-0.8c0.1-0.3,0.1-0.6,0.1-0.9s0-0.6,0-0.9
	c-0.1,0.4-0.2,0.7-0.4,1c-0.2,0.3-0.4,0.6-0.7,0.8c-0.3,0.2-0.6,0.4-0.9,0.5C24.2,8.5,23.8,8.6,23.4,8.6z"/>
<path d="M22.9,8.5l-0.1,0.6l0,0L22.9,8.5z M23.4,8.6v0.6l0,0V8.6z M22.3,8.3L22,8.9l0,0L22.3,8.3z M21.8,8l-0.3,0.5l0,0L21.8,8z
	 M21.3,7.7l-0.4,0.4l0,0L21.3,7.7z M20.6,6.7l-0.5,0.2l0,0L20.6,6.7z M20.5,6.1L21,6l0,0L20.5,6.1z M20.4,5.5h-0.6l0,0H20.4z
	 M20.4,4.9l-0.6-0.1l0,0L20.4,4.9z M20.6,4.4L20,4.2l0,0L20.6,4.4z M20.9,3.8l-0.5-0.3l0,0L20.9,3.8z M21.2,3.4L20.8,3l0,0L21.2,3.4
	z M21.7,3L22,3.5l0,0L21.7,3z M22.8,2.5l-0.1-0.6l0,0L22.8,2.5z M23.4,2.4V3l0.1-1.1L23.4,2.4z M22.9,2.3L23,1.7l0,0L22.9,2.3z
	 M22.4,2.2V1.6l0,0V2.2z M21.8,2.2v0.6l0,0V2.2z M21.3,2.3l-0.1-0.6l0,0L21.3,2.3z M20.8,2.4L21,3l0,0L20.8,2.4z M20.3,2.6l-0.2-0.5
	l0,0L20.3,2.6z M19.9,2.8l-0.3-0.5l0,0L19.9,2.8z M19.5,3.1l-0.4-0.5l0,0L19.5,3.1z M19.1,3.4L18.7,3l0,0L19.1,3.4z M18.4,4.2
	l-0.5-0.3l0,0L18.4,4.2z M18.1,4.7l-0.5-0.3l0,0L18.1,4.7z M17.9,5.1l-0.6-0.2l0,0L17.9,5.1z M17.8,5.6l0.6,0.1l0,0L17.8,5.6z
	 M17.7,6.1L17.1,6l0,0L17.7,6.1z M17.7,6.6h0.6l0,0H17.7z M17.8,7.5l-0.6,0.1l0,0L17.8,7.5z M18,8.4l0.5-0.2l0,0L18,8.4z M18.5,9.2
	L18,9.5l0,0L18.5,9.2z M19.1,9.9l-0.4,0.4l0,0L19.1,9.9z M19.8,10.4l0.3-0.5l0,0L19.8,10.4z M20.6,10.8l-0.2,0.5l0,0L20.6,10.8z
	 M21.5,11l0.1-0.6l0,0L21.5,11z M21.8,11l0.2,0.6l-0.2-1.1V11z M1.7,43.7H1.1v0.6h0.6V43.7z M42.5,43.7v0.6h0.6v-0.6H42.5z M22.4,11
	v-0.6l-0.2,1.1L22.4,11z M22.4,11v0.6l0,0V11z M23.3,10.9l0.2,0.6l0,0L23.3,10.9z M24.2,10.6l0.3,0.5l0,0L24.2,10.6z M25,10.1
	l0.4,0.5l0,0L25,10.1z M25.6,9.4L25.1,9l0,0L25.6,9.4z M26.1,8.7L26.6,9l0,0L26.1,8.7z M26.6,6.9h0.6l0,0H26.6z M26.5,6l0.6-0.1
	h-1.2L26.5,6z M26.2,7l0.5,0.3l0,0L26.2,7z M25.5,7.9l0.4,0.4l0,0L25.5,7.9z M24.5,8.4l-0.2-0.5l0,0L24.5,8.4z M22.7,9.1
	c0.2,0,0.5,0.1,0.7,0.1V8c-0.2,0-0.3,0-0.5-0.1L22.7,9.1z M22,8.9C22.3,9,22.5,9,22.7,9.1L23,7.9c-0.2,0-0.3-0.1-0.5-0.2L22,8.9z
	 M21.4,8.5c0.2,0.1,0.4,0.2,0.6,0.3l0.5-1.1c-0.2-0.1-0.3-0.1-0.4-0.2L21.4,8.5z M20.9,8.1c0.2,0.2,0.4,0.3,0.5,0.5l0.7-1
	c-0.1-0.1-0.3-0.2-0.4-0.3L20.9,8.1z M20.4,7.5c0.1,0.2,0.3,0.4,0.4,0.5l0.8-0.8c-0.1-0.1-0.2-0.2-0.3-0.4L20.4,7.5z M20.1,6.9
	c0.1,0.2,0.2,0.4,0.3,0.6l1-0.6c-0.1-0.1-0.2-0.3-0.2-0.4L20.1,6.9z M19.9,6.2c0,0.2,0.1,0.5,0.2,0.7l1.1-0.4
	C21.1,6.3,21.1,6.2,21,6L19.9,6.2z M19.8,5.5c0,0.2,0,0.5,0.1,0.7L21,6c0-0.2,0-0.3,0-0.5H19.8z M19.9,4.8c0,0.2-0.1,0.5-0.1,0.7H21
	c0-0.2,0-0.3,0-0.5L19.9,4.8z M20.1,4.2c-0.1,0.2-0.2,0.5-0.2,0.7L21,5c0-0.2,0.1-0.3,0.1-0.5L20.1,4.2z M20.4,3.5
	c-0.1,0.2-0.2,0.4-0.3,0.6l1.1,0.4c0.1-0.2,0.1-0.3,0.2-0.4L20.4,3.5z M20.8,3c-0.2,0.2-0.3,0.4-0.4,0.6l1,0.6
	c0.1-0.1,0.2-0.3,0.3-0.4L20.8,3z M21.4,2.5C21.2,2.6,21,2.8,20.8,3l0.9,0.8c0.1-0.1,0.2-0.2,0.4-0.3L21.4,2.5z M22,2.2
	c-0.2,0.1-0.4,0.2-0.6,0.4L22,3.5c0.1-0.1,0.3-0.2,0.4-0.2L22,2.2z M22.6,1.9C22.4,2,22.2,2.1,22,2.2l0.5,1.1
	c0.2-0.1,0.3-0.1,0.5-0.2L22.6,1.9z M23.4,1.8c-0.2,0-0.5,0-0.7,0.1L23,3c0.1,0,0.2,0,0.4,0V1.8z M22.8,2.9C23,2.9,23.1,3,23.2,3
	l0.3-1.1c-0.2-0.1-0.4-0.1-0.6-0.1L22.8,2.9z M22.3,2.8c0.1,0,0.3,0,0.5,0L23,1.7c-0.2,0-0.4-0.1-0.6-0.1L22.3,2.8z M21.9,2.8
	c0.1,0,0.3,0,0.4,0l0.1-1.2c-0.2,0-0.4,0-0.6,0L21.9,2.8z M21.4,2.9c0.1,0,0.3,0,0.4-0.1l-0.1-1.2c-0.2,0-0.4,0-0.6,0.1L21.4,2.9z
	 M21,3c0.1,0,0.3-0.1,0.4-0.1l-0.2-1.1c-0.2,0-0.4,0.1-0.6,0.1L21,3z M20.6,3.1C20.7,3.1,20.9,3,21,3l-0.4-1.1
	C20.4,2,20.2,2,20.1,2.1L20.6,3.1z M20.2,3.3c0.1-0.1,0.3-0.1,0.4-0.2L20.1,2c-0.2,0.1-0.4,0.2-0.5,0.3L20.2,3.3z M19.8,3.6
	c0.1-0.1,0.2-0.2,0.4-0.2l-0.6-1c-0.2,0.1-0.3,0.2-0.5,0.3L19.8,3.6z M19.5,3.9c0.1-0.1,0.2-0.2,0.3-0.3l-0.7-0.9
	c-0.2,0.1-0.3,0.2-0.4,0.4L19.5,3.9z M19.2,4.2c0.1-0.1,0.2-0.2,0.3-0.3L18.7,3c-0.1,0.1-0.3,0.3-0.4,0.4L19.2,4.2z M18.9,4.5
	c0.1-0.1,0.2-0.2,0.3-0.4l-0.9-0.8c-0.1,0.2-0.2,0.3-0.3,0.5L18.9,4.5z M18.7,4.9c0.1-0.1,0.1-0.3,0.2-0.4l-1-0.6
	c-0.1,0.2-0.2,0.3-0.3,0.5L18.7,4.9z M18.5,5.3c0.1-0.1,0.1-0.3,0.2-0.4l-1.1-0.5c-0.1,0.2-0.2,0.4-0.2,0.5L18.5,5.3z M18.4,5.8
	c0-0.1,0.1-0.3,0.1-0.4L17.4,5c-0.1,0.2-0.1,0.4-0.2,0.6L18.4,5.8z M18.3,6.2c0-0.1,0-0.3,0.1-0.4l-1.2-0.3c0,0.2-0.1,0.4-0.1,0.6
	L18.3,6.2z M18.3,6.6c0-0.1,0-0.3,0-0.4l-1.2-0.1c0,0.2,0,0.4,0,0.6L18.3,6.6L18.3,6.6z M18.3,7.4c-0.1-0.3-0.1-0.5-0.1-0.8H17
	c0,0.3,0,0.7,0.1,1L18.3,7.4z M18.6,8.2c-0.1-0.2-0.2-0.5-0.2-0.7l-1.2,0.2c0.1,0.3,0.2,0.7,0.3,1L18.6,8.2z M19,8.8
	c-0.2-0.2-0.3-0.4-0.4-0.7l-1.1,0.5c0.1,0.3,0.3,0.6,0.5,0.9L19,8.8z M19.5,9.4C19.3,9.2,19.1,9,19,8.8l-1,0.7
	c0.2,0.3,0.4,0.5,0.7,0.8L19.5,9.4z M20.1,9.9c-0.2-0.1-0.4-0.3-0.6-0.5l-0.8,0.9c0.3,0.2,0.5,0.4,0.8,0.6L20.1,9.9z M20.8,10.3
	c-0.3-0.1-0.5-0.2-0.7-0.3l-0.6,1c0.3,0.2,0.6,0.3,0.9,0.4L20.8,10.3z M21.6,10.4c-0.3,0-0.5-0.1-0.8-0.2l-0.4,1.1
	c0.3,0.1,0.7,0.2,1,0.2L21.6,10.4z M21.9,10.5c-0.1,0-0.2,0-0.3,0l-0.2,1.2c0.1,0,0.2,0,0.3,0L21.9,10.5z M21.8,11.9
	c0-0.1,0.1-0.2,0.2-0.3l-0.4-1.1c-0.6,0.2-1,0.7-1,1.4C20.6,11.9,21.8,11.9,21.8,11.9z M22.1,12.2c-0.2,0-0.3-0.1-0.3-0.3h-1.2
	c0,0.8,0.7,1.5,1.5,1.5V12.2z M22.1,12.2c-11.6,0-21,9.3-21,20.7h1.2c0-10.8,8.9-19.6,19.8-19.6V12.2z M1.1,32.9v10.8h1.2V32.9H1.1z
	 M1.7,44.3h40.9v-1.2H1.7V44.3z M43.1,43.7V32.9H42v10.8H43.1z M43.1,32.9c0-11.5-9.4-20.7-21-20.7v1.2c11,0,19.8,8.8,19.8,19.6
	L43.1,32.9L43.1,32.9z M22.4,11.9c0,0.2-0.1,0.3-0.3,0.3v1.2c0.8,0,1.5-0.7,1.5-1.5H22.4z M22.2,11.6c0.1,0,0.2,0.1,0.2,0.3h1.2
	c0-0.6-0.4-1.2-1-1.4L22.2,11.6z M22.4,10.5L22.4,10.5v1.2l0,0V10.5z M23.2,10.3c-0.3,0.1-0.5,0.1-0.8,0.1l0.1,1.2
	c0.3,0,0.7-0.1,1-0.2L23.2,10.3z M23.9,10c-0.2,0.1-0.5,0.2-0.7,0.3l0.3,1.1c0.3-0.1,0.7-0.2,1-0.4L23.9,10z M24.6,9.6
	c-0.2,0.2-0.4,0.3-0.7,0.4l0.6,1c0.3-0.2,0.6-0.3,0.9-0.6L24.6,9.6z M25.1,9c-0.2,0.2-0.4,0.4-0.6,0.6l0.8,0.9
	c0.3-0.2,0.5-0.5,0.7-0.7L25.1,9z M25.6,8.4c-0.1,0.2-0.3,0.5-0.4,0.7l0.9,0.7c0.2-0.3,0.4-0.6,0.6-0.9L25.6,8.4z M25.9,7.7
	c-0.1,0.3-0.2,0.5-0.3,0.7l1.1,0.5c0.2-0.3,0.3-0.6,0.4-1L25.9,7.7z M26,6.9c0,0.3-0.1,0.5-0.1,0.8L27,8c0.1-0.3,0.1-0.7,0.2-1
	L26,6.9z M26,6.1c0,0.3,0,0.5,0,0.8L27.2,7c0-0.3,0-0.7,0-1L26,6.1z M26.7,7.3c0.2-0.4,0.4-0.8,0.4-1.2L26,5.9
	c-0.1,0.3-0.2,0.6-0.3,0.8L26.7,7.3z M25.9,8.3c0.3-0.3,0.6-0.6,0.8-1l-1-0.6c-0.1,0.3-0.3,0.5-0.6,0.7L25.9,8.3z M24.7,9
	c0.4-0.1,0.8-0.4,1.1-0.6L25,7.5c-0.2,0.2-0.5,0.3-0.8,0.4L24.7,9z M23.4,9.2c0.4,0,0.9-0.1,1.3-0.2l-0.4-1.1C24,8,23.7,8,23.4,8
	V9.2z"/>
<path class="st0" d="M10.6,32.7v-0.5c0-0.3,0.1-0.7,0.2-0.9c0.2-0.3,0.4-0.5,0.7-0.7s0.6-0.3,1-0.3s0.8,0.1,1,0.3
	c0.3,0.2,0.5,0.4,0.6,0.7c0.1,0.3,0.2,0.6,0.2,1v0.5c0,0.3-0.1,0.7-0.2,1c-0.1,0.3-0.4,0.5-0.7,0.7s-0.6,0.3-1,0.3s-0.8-0.1-1.1-0.3
	s-0.5-0.4-0.6-0.7C10.7,33.4,10.6,33,10.6,32.7z M11.8,32.2v0.5c0,0.2,0,0.4,0.1,0.6c0.1,0.2,0.3,0.3,0.5,0.3c0.3,0,0.4-0.1,0.5-0.3
	s0.1-0.4,0.1-0.6v-0.5c0-0.2,0-0.4-0.1-0.6s-0.3-0.3-0.5-0.3c-0.3,0-0.4,0.1-0.5,0.3C11.9,31.9,11.8,32,11.8,32.2z M6.1,27.8v-0.5
	c0-0.3,0.1-0.7,0.2-1C6.5,26,6.7,25.8,7,25.6c0.3-0.2,0.6-0.3,1-0.3s0.8,0.1,1.1,0.3c0.3,0.2,0.5,0.4,0.6,0.7c0.1,0.3,0.2,0.6,0.2,1
	v0.5c0,0.3-0.1,0.7-0.2,1c-0.1,0.3-0.4,0.5-0.7,0.7s-0.6,0.3-1,0.3c-0.4,0-0.8-0.1-1.1-0.3c-0.3-0.2-0.5-0.4-0.6-0.7
	C6.2,28.4,6.1,28.1,6.1,27.8z M7.4,27.3v0.5c0,0.2,0,0.4,0.1,0.6s0.3,0.3,0.5,0.3c0.3,0,0.4-0.1,0.5-0.3c0.1-0.2,0.1-0.4,0.1-0.6
	v-0.5c0-0.2,0-0.4-0.1-0.6S8.2,26.4,8,26.4c-0.3,0-0.4,0.1-0.5,0.3C7.4,26.9,7.4,27.1,7.4,27.3z M6.7,34.3l6-8.6h1.1l-6,8.6H6.7z
	 M19.9,25.7v8.6h-1.8v-6.9H18l-2,1.2V27l2.2-1.3C18.2,25.7,19.9,25.7,19.9,25.7z M25.4,34.5c-0.7,0-1.4-0.2-1.9-0.5
	c-0.5-0.4-0.9-0.9-1.2-1.5C22,31.8,21.9,31,21.9,30c0-0.9,0.1-1.7,0.4-2.4c0.3-0.7,0.7-1.2,1.2-1.5s1.2-0.5,1.9-0.5s1.4,0.2,1.9,0.5
	s0.9,0.9,1.2,1.5c0.3,0.7,0.4,1.5,0.4,2.4s-0.1,1.7-0.4,2.4s-0.7,1.2-1.2,1.5C26.7,34.3,26.1,34.5,25.4,34.5z M25.4,33
	c0.5,0,0.9-0.2,1.2-0.7C26.9,31.8,27,31,27,30c0-0.7-0.1-1.2-0.2-1.6s-0.3-0.8-0.6-1c-0.2-0.2-0.5-0.3-0.9-0.3
	c-0.5,0-0.9,0.2-1.2,0.7c-0.3,0.5-0.4,1.2-0.5,2.2c0,0.7,0.1,1.2,0.2,1.7c0.1,0.4,0.3,0.8,0.6,1C24.8,32.9,25,33,25.4,33z
	 M33.6,34.5c-0.7,0-1.4-0.2-1.9-0.5c-0.5-0.4-0.9-0.9-1.2-1.5c-0.3-0.7-0.4-1.5-0.4-2.4s0.1-1.7,0.4-2.4c0.3-0.7,0.7-1.2,1.2-1.5
	c0.5-0.3,1.2-0.5,1.9-0.5s1.4,0.2,1.9,0.5s0.9,0.9,1.2,1.5c0.3,0.7,0.4,1.5,0.4,2.4s-0.1,1.7-0.4,2.4c-0.3,0.7-0.7,1.2-1.2,1.5
	S34.4,34.5,33.6,34.5z M33.6,33c0.5,0,0.9-0.2,1.2-0.7s0.4-1.2,0.4-2.2c0-0.7-0.1-1.2-0.2-1.6c-0.1-0.4-0.3-0.8-0.6-1
	c-0.2-0.2-0.5-0.3-0.9-0.3c-0.5,0-0.9,0.2-1.2,0.7C32.1,28.3,32,29,32,30c0,0.7,0.1,1.2,0.2,1.7c0.1,0.4,0.3,0.8,0.6,1
	C33,32.9,33.3,33,33.6,33z"/>
</svg>
