<svg width="317" height="75" viewBox="0 0 317 75" fill="none" xmlns="http://www.w3.org/2000/svg">
<path d="M22.0747 46.7212C20.9347 45.5812 19.9657 44.6693 19.1677 43.9853C18.3697 43.3013 17.5907 42.6743 16.8307 42.1043V41.5342C17.0967 41.1162 17.4767 40.6033 17.9707 39.9953C18.4647 39.3873 19.0157 38.7793 19.6237 38.1712C20.1937 37.5253 20.7257 36.9552 21.2197 36.4613C21.7137 35.9673 22.0747 35.6443 22.3027 35.4923H22.8727C24.4307 36.4803 25.6277 37.3733 26.4637 38.1712C27.3377 38.9692 27.7747 39.8243 27.7747 40.7363C27.7747 41.6863 27.2237 42.6933 26.1217 43.7573C25.0577 44.8213 23.8607 45.8092 22.5307 46.7212H22.0747Z" fill="#87786C"/>
<path d="M15.7375 74.7083C12.6215 74.7083 10.0375 74.2143 7.9855 73.2263C5.9715 72.2763 4.3755 71.0033 3.1975 69.4073C2.0575 67.8113 1.2405 66.0443 0.7465 64.1063C0.2905 62.1683 0.0625 60.2303 0.0625 58.2923C0.0625 54.7963 0.5185 51.0913 1.4305 47.1773C2.3805 43.2633 3.9195 39.2733 6.0475 35.2073L7.9285 35.8913C6.7885 38.5893 5.9905 41.0593 5.5345 43.3013C5.0785 45.5053 4.8505 47.5003 4.8505 49.2863C4.8505 51.4523 5.1545 53.2953 5.7625 54.8153C6.4085 56.3733 7.3205 57.6273 8.4985 58.5773C9.6765 59.5273 11.0825 60.2113 12.7165 60.6293C14.3885 61.0853 16.2505 61.3133 18.3025 61.3133C20.4685 61.3133 22.4635 61.0853 24.2875 60.6293C26.1115 60.2113 27.7835 59.5843 29.3035 58.7483C30.8615 57.9503 32.2485 57.0003 33.4645 55.8983C34.9085 54.6063 35.9725 53.3523 36.6565 52.1363C37.3785 50.9202 37.8535 49.5523 38.0815 48.0323C38.3475 46.5123 38.4805 44.6693 38.4805 42.5033C38.4805 41.7812 38.4615 41.0783 38.4235 40.3942C38.4235 39.6723 38.4235 38.9503 38.4235 38.2283C38.4235 36.2143 38.5565 34.2952 38.8225 32.4713C39.0885 30.6473 39.4875 28.8233 40.0195 26.9993C40.5895 25.1373 41.2735 23.1803 42.0715 21.1283L43.6105 21.4702C43.5345 22.0023 43.4395 22.8193 43.3255 23.9212C43.2495 24.9853 43.1735 26.1823 43.0975 27.5123C43.0595 28.8423 43.0215 30.1533 42.9835 31.4453C42.9835 32.0153 42.9645 32.5853 42.9265 33.1553C42.9265 33.6873 42.9265 34.2383 42.9265 34.8083C42.8885 38.7223 42.4895 42.5983 41.7295 46.4363C41.0075 50.2743 39.9245 53.8843 38.4805 57.2663C37.0365 60.6863 35.2315 63.7073 33.0655 66.3293C30.9375 68.9512 28.4295 71.0033 25.5415 72.4853C22.6535 73.9673 19.3855 74.7083 15.7375 74.7083Z" fill="#87786C"/>
<path d="M61.3648 58.2353C58.2488 58.2353 55.9878 57.1903 54.5818 55.1003C53.1758 52.9723 52.4728 49.4953 52.4728 44.6693C52.4728 43.7573 52.4728 42.8453 52.4728 41.9333C52.5108 41.0213 52.5488 39.9953 52.5868 38.8553C52.6628 37.6773 52.7388 36.2903 52.8148 34.6943C52.8908 33.0603 52.9858 31.0843 53.0998 28.7663C53.2518 25.6123 53.4608 22.7623 53.7268 20.2162C53.9928 17.6323 54.3918 15.2003 54.9238 12.9203C55.4938 10.6403 56.2918 8.36025 57.3178 6.08025L58.7998 6.47925C58.6098 7.35325 58.3818 8.72125 58.1158 10.5833C57.8878 12.4453 57.6598 14.6112 57.4318 17.0812C57.2038 19.5133 57.0138 22.1163 56.8618 24.8903C56.7098 27.6643 56.6338 30.4003 56.6338 33.0983C56.6338 35.2263 56.7858 37.0693 57.0898 38.6273C57.3938 40.1473 57.8498 41.4013 58.4578 42.3893C59.0658 43.3393 59.8448 44.0613 60.7948 44.5553C61.7448 45.0113 62.8658 45.2393 64.1578 45.2393C65.0698 45.2393 65.7158 45.7333 66.0958 46.7213C66.4758 47.6713 66.6658 49.0203 66.6658 50.7682C66.6658 52.2503 66.4568 53.5613 66.0388 54.7013C65.6588 55.8033 65.0698 56.6772 64.2718 57.3232C63.5118 57.9313 62.5428 58.2353 61.3648 58.2353Z" fill="#87786C"/>
<path d="M89.1118 17.2618C88.0858 16.2738 87.3068 15.5328 86.7748 15.0388C86.2048 14.5068 85.7298 14.0698 85.3498 13.7278C84.9318 13.3858 84.4378 13.0248 83.8678 12.6448V12.0748C84.1338 11.6567 84.5138 11.1438 85.0078 10.5358C85.5018 9.92775 86.0528 9.31975 86.6608 8.71175C87.2308 8.06575 87.7628 7.49575 88.2568 7.00175C88.7508 6.50775 89.1118 6.18475 89.3398 6.03275H89.9098C91.4678 7.02075 92.6648 7.91375 93.5008 8.71175C94.3748 9.50975 94.8118 10.3648 94.8118 11.2768C94.8118 12.2268 94.2608 13.2338 93.1588 14.2977C92.0948 15.3617 90.8978 16.3498 89.5678 17.2618H89.1118Z" fill="#87786C"/>
<path d="M61.3194 58.2353C60.6354 58.2353 60.1034 57.9313 59.7234 57.3232C59.3434 56.7153 59.0964 55.9743 58.9824 55.1003C58.8304 54.1883 58.7544 53.3143 58.7544 52.4783C58.7544 50.8443 58.9824 49.4953 59.4384 48.4313C59.8944 47.3673 60.5214 46.5693 61.3194 46.0373C62.1174 45.5053 63.0484 45.2393 64.1124 45.2393C66.0884 45.2393 67.7794 44.9163 69.1854 44.2703C70.6294 43.5863 71.8074 42.5223 72.7194 41.0783L73.4604 39.8813C73.9164 39.1213 74.3154 38.6273 74.6574 38.3993C75.0374 38.1333 75.4744 38.0003 75.9684 38.0003C76.2724 38.0003 76.6714 38.0953 77.1654 38.2853C77.6594 38.4373 78.1344 38.6083 78.5904 38.7983C79.0844 38.9883 79.4454 39.1213 79.6734 39.1973C80.0914 38.4373 80.6044 37.6393 81.2124 36.8033C81.8204 35.9673 82.6944 34.6943 83.8344 32.9843C85.0124 31.2743 86.3614 29.6213 87.8814 28.0252C89.4014 26.4293 91.0544 25.1373 92.8404 24.1493C94.6264 23.1233 96.5074 22.6103 98.4834 22.6103C100.269 22.6103 101.675 23.0663 102.701 23.9783C103.765 24.8523 104.297 26.2203 104.297 28.0823C104.297 29.5263 104.012 31.1603 103.442 32.9843C102.872 34.8083 102.055 36.6513 100.991 38.5133C99.9274 40.3753 98.6734 42.1233 97.2294 43.7573C95.7854 45.3533 94.1704 46.6643 92.3844 47.6903C90.7504 48.6403 89.1354 49.3623 87.5394 49.8563C85.9814 50.3503 84.4804 50.5973 83.0364 50.5973C81.4024 50.5973 79.9014 50.3313 78.5334 49.7993C77.2034 49.2673 76.0444 48.6973 75.0564 48.0893C74.2584 47.5573 73.7264 47.2343 73.4604 47.1203C73.2324 46.9683 72.9284 46.8923 72.5484 46.8923C72.2824 46.8923 72.0354 47.0633 71.8074 47.4053C71.3894 47.9373 70.9524 48.8303 70.4964 50.0843C70.1164 51.1483 69.6414 52.1553 69.0714 53.1053C68.5394 54.0173 67.9124 54.8913 67.1904 55.7273C66.4684 56.5633 65.6134 57.1903 64.6254 57.6083C63.6754 58.0263 62.5734 58.2353 61.3194 58.2353ZM86.2854 40.5083C87.8814 40.5083 89.4584 40.3373 91.0164 39.9953C92.6124 39.6153 94.0374 39.1403 95.2914 38.5703C96.5834 37.9622 97.6094 37.3162 98.3694 36.6323C99.1674 35.9482 99.5664 35.2833 99.5664 34.6373C99.5664 33.6493 99.0914 32.9463 98.1414 32.5282C97.2294 32.0723 96.1654 31.8443 94.9494 31.8443C92.7834 31.8443 90.7314 32.5093 88.7934 33.8392C86.8554 35.1693 84.8604 37.2213 82.8084 39.9953C83.5684 40.1853 84.2144 40.3183 84.7464 40.3942C85.3164 40.4702 85.8294 40.5083 86.2854 40.5083Z" fill="#87786C"/>
<path d="M85.1031 51.2243C83.2411 51.2243 82.0061 51.0723 81.3981 50.7683C80.7901 50.4263 80.4861 50.0653 80.4861 49.6853C80.4861 49.1153 80.7141 48.6783 81.1701 48.3743C81.6261 48.0323 82.5191 47.8613 83.8491 47.8613C88.3331 47.8613 92.3991 47.3673 96.0471 46.3793C99.6951 45.3913 102.925 43.9473 105.737 42.0473C107.637 40.7553 109.347 39.4823 110.867 38.2283C112.425 36.9363 113.793 35.6632 114.971 34.4093C116.187 33.1173 117.232 31.8443 118.106 30.5903C119.398 28.6903 120.671 27.1893 121.925 26.0873C123.179 24.9853 124.395 24.2443 125.573 23.8643C125.915 23.1803 126.333 22.4963 126.827 21.8123C127.321 21.0903 127.872 20.3873 128.48 19.7033C129.088 19.0193 129.677 18.3923 130.247 17.8223H131.216C131.634 18.9623 132.09 19.9883 132.584 20.9002C133.078 21.7743 133.61 22.5723 134.18 23.2943C134.75 24.0163 135.168 24.7003 135.434 25.3463C135.738 25.9923 135.89 26.6193 135.89 27.2273C135.89 27.9493 135.7 28.8043 135.32 29.7923C134.94 30.7423 134.408 31.6733 133.724 32.5853C133.04 33.4973 132.261 34.2573 131.387 34.8653C130.551 35.4733 129.677 35.7773 128.765 35.7773C128.347 35.7773 127.891 35.7013 127.397 35.5493C126.903 35.3973 126.39 35.1693 125.858 34.8653C125.288 34.5613 124.699 34.3333 124.091 34.1813C123.521 34.0293 122.932 33.9533 122.324 33.9533C121.564 33.9533 120.671 34.2763 119.645 34.9223C118.619 35.5683 117.479 36.5373 116.225 37.8293C115.389 38.6653 114.515 39.5013 113.603 40.3373C112.729 41.1353 111.817 41.9143 110.867 42.6743C109.917 43.3963 108.929 44.0993 107.903 44.7833C105.813 46.1893 103.495 47.3863 100.949 48.3743C98.4411 49.3243 95.8191 50.0463 93.0831 50.5403C90.3851 50.9963 87.7251 51.2243 85.1031 51.2243Z" fill="#87786C"/>
<path d="M124.49 58.0643L124.034 56.6393C125.06 55.9173 126.314 54.9862 127.796 53.8462C129.316 52.7443 130.912 51.5093 132.584 50.1413C134.294 48.7353 135.947 47.3293 137.543 45.9233C139.177 44.4793 140.621 43.0923 141.875 41.7623C143.167 40.4323 144.136 39.2542 144.782 38.2283C145.466 37.0883 146.055 36.0812 146.549 35.2073C147.043 34.3333 147.48 33.4783 147.86 32.6423C148.278 31.7683 148.696 30.7993 149.114 29.7353C149.57 28.6333 150.083 27.3223 150.653 25.8022L152.705 26.0872C152.249 28.1393 151.622 30.4383 150.824 32.9843C150.064 35.4923 149.171 37.9813 148.145 40.4513C147.157 42.9213 146.093 45.1823 144.953 47.2343C143.813 49.2483 142.673 50.8063 141.533 51.9082C141.229 52.1743 140.564 52.5353 139.538 52.9913C138.512 53.4473 137.296 53.9223 135.89 54.4163C134.522 54.9103 133.097 55.4043 131.615 55.8983C130.133 56.3923 128.746 56.8293 127.454 57.2093C126.2 57.5893 125.212 57.8743 124.49 58.0643Z" fill="#87786C"/>
<path d="M184.377 74.7653C180.501 74.7653 177.081 73.9103 174.117 72.2002C171.153 70.4902 168.835 68.0203 167.163 64.7903C165.491 61.5603 164.655 57.6653 164.655 53.1053C164.655 47.6333 165.89 42.5223 168.36 37.7723C170.83 32.9843 174.345 28.5003 178.905 24.3203C177.841 22.7623 176.815 21.6983 175.827 21.1283C174.839 20.5583 173.87 20.2733 172.92 20.2733L172.464 19.0763C173.338 16.9862 174.706 15.3903 176.568 14.2883C178.468 13.1863 180.748 12.6353 183.408 12.6353C185.84 12.6353 187.74 13.1293 189.108 14.1172C190.514 15.1053 191.217 16.4353 191.217 18.1072C191.217 19.0573 190.932 20.1022 190.362 21.2422C189.792 22.3822 189.108 23.3323 188.31 24.0923C188.5 24.1683 188.728 24.2443 188.994 24.3203C189.298 24.3963 189.697 24.4342 190.191 24.4342C191.065 24.4342 191.654 24.7762 191.958 25.4603C192.3 26.1442 192.471 26.8472 192.471 27.5693C192.471 28.1773 192.357 28.8423 192.129 29.5643C191.939 30.2863 191.559 30.9133 190.989 31.4453C190.419 31.9393 189.583 32.1863 188.481 32.1863C187.075 32.1863 185.802 31.8822 184.662 31.2743C183.522 30.6663 182.363 29.6023 181.185 28.0823C179.361 29.3743 177.67 30.8372 176.112 32.4713C174.592 34.0672 173.357 35.9482 172.407 38.1143C171.495 40.2803 171.039 42.8073 171.039 45.6953C171.039 48.8113 171.761 51.5472 173.205 53.9033C174.649 56.2593 176.663 58.1023 179.247 59.4323C181.869 60.7623 184.871 61.4273 188.253 61.4273C190.381 61.4273 192.623 61.1803 194.979 60.6863C197.335 60.1923 199.691 59.3563 202.047 58.1783C204.403 57.0003 206.626 55.3853 208.716 53.3333C210.844 51.2812 212.706 48.6973 214.302 45.5812L216.183 46.2083C215.119 48.9443 213.846 51.6803 212.364 54.4163C210.92 57.1523 209.248 59.7363 207.348 62.1683C205.486 64.6003 203.396 66.7663 201.078 68.6663C198.76 70.5663 196.214 72.0483 193.44 73.1123C190.666 74.2143 187.645 74.7653 184.377 74.7653Z" fill="#87786C"/>
<path d="M193.029 48.0845C192.003 47.0965 191.224 46.3365 190.692 45.8045C190.122 45.3105 189.647 44.8925 189.267 44.5505C188.849 44.2085 188.355 43.8475 187.785 43.4675V42.8975C188.051 42.4795 188.431 41.9665 188.925 41.3585C189.419 40.7505 189.97 40.1235 190.578 39.4775C191.148 38.8695 191.68 38.3185 192.174 37.8245C192.668 37.3305 193.029 37.0075 193.257 36.8555H193.827C194.815 37.4635 195.613 38.0145 196.221 38.5085C196.829 39.0405 197.323 39.5155 197.703 39.9335C198.501 38.9835 199.28 38.1095 200.04 37.3115C200.8 36.5515 201.351 36.0575 201.693 35.8295H202.263C203.821 36.8175 205.018 37.7105 205.854 38.5085C206.728 39.3065 207.165 40.1615 207.165 41.0735C207.165 42.0235 206.614 43.0305 205.512 44.0945C204.448 45.1585 203.251 46.1465 201.921 47.0585H201.465C200.667 46.2985 200.002 45.6715 199.47 45.1775C198.976 44.7215 198.501 44.3035 198.045 43.9235C197.209 45.2155 195.689 46.6025 193.485 48.0845H193.029Z" fill="#87786C"/>
<path d="M188.514 32.1293C187.906 32.1293 187.374 31.8633 186.918 31.3313C186.462 30.7993 186.233 29.9253 186.233 28.7093C186.233 27.1893 186.651 26.0873 187.487 25.4033C188.323 24.7193 189.236 24.3773 190.224 24.3773C191.174 24.3773 192.276 24.2253 193.53 23.9213C194.822 23.6173 195.98 23.1043 197.006 22.3823C198.07 21.6603 198.717 20.6913 198.945 19.4753C199.211 18.1453 199.363 17.0243 199.401 16.1123C199.477 15.1623 199.514 14.2313 199.514 13.3193C199.514 11.9893 199.572 10.9063 199.686 10.0703C199.837 9.19625 200.142 8.28425 200.598 7.33425C201.053 6.38425 201.738 5.14925 202.65 3.62925L204.075 4.08525C203.999 4.42725 203.941 4.75025 203.904 5.05425C203.865 5.35825 203.827 5.64325 203.789 5.90925C203.637 7.42925 203.485 8.94925 203.333 10.4692C203.181 11.9513 203.029 13.4523 202.877 14.9722C202.611 17.4043 201.946 19.8933 200.882 22.4393C199.818 24.9473 198.393 27.0563 196.607 28.7663C195.543 29.7923 194.327 30.6093 192.96 31.2173C191.591 31.8253 190.11 32.1293 188.514 32.1293Z" fill="#87786C"/>
<path d="M204.646 58.0643L204.19 56.6393C205.216 55.9173 206.47 54.9862 207.952 53.8462C209.472 52.7443 211.068 51.5093 212.74 50.1413C214.45 48.7353 216.103 47.3293 217.699 45.9233C219.333 44.4793 220.777 43.0923 222.031 41.7623C223.323 40.4323 224.292 39.2542 224.938 38.2283C225.622 37.0883 226.211 36.0812 226.705 35.2073C227.199 34.3333 227.636 33.4783 228.016 32.6423C228.434 31.7683 228.852 30.7993 229.27 29.7353C229.726 28.6333 230.239 27.3223 230.809 25.8022L232.861 26.0872C232.405 28.1393 231.778 30.4383 230.98 32.9843C230.22 35.4923 229.327 37.9813 228.301 40.4513C227.313 42.9213 226.249 45.1823 225.109 47.2343C223.969 49.2483 222.829 50.8063 221.689 51.9082C221.385 52.1743 220.72 52.5353 219.694 52.9913C218.668 53.4473 217.452 53.9223 216.046 54.4163C214.678 54.9103 213.253 55.4043 211.771 55.8983C210.289 56.3923 208.902 56.8293 207.61 57.2093C206.356 57.5893 205.368 57.8743 204.646 58.0643Z" fill="#87786C"/>
<path d="M250.546 53.5043C247.43 53.5043 245.169 52.4593 243.763 50.3693C242.357 48.2413 241.654 44.7643 241.654 39.9383C241.654 39.0263 241.654 38.1143 241.654 37.2023C241.692 36.2903 241.73 35.2643 241.768 34.1243C241.844 32.9463 241.92 31.5592 241.996 29.9633C242.072 28.3293 242.167 26.3532 242.281 24.0352C242.433 20.8813 242.642 18.0312 242.908 15.4852C243.174 12.9013 243.573 10.4693 244.105 8.18925C244.675 5.90925 245.473 3.62925 246.499 1.34925L247.981 1.74825C247.791 2.62225 247.563 3.99025 247.297 5.85225C247.069 7.71425 246.841 9.88025 246.613 12.3502C246.385 14.7822 246.195 17.3853 246.043 20.1593C245.891 22.9333 245.815 25.6693 245.815 28.3673C245.815 30.4953 245.967 32.3383 246.271 33.8963C246.575 35.4163 247.031 36.6702 247.639 37.6582C248.247 38.6082 249.026 39.3302 249.976 39.8243C250.926 40.2803 252.047 40.5083 253.339 40.5083C254.251 40.5083 254.897 41.0023 255.277 41.9903C255.657 42.9403 255.847 44.2892 255.847 46.0373C255.847 47.5192 255.638 48.8302 255.22 49.9702C254.84 51.0723 254.251 51.9463 253.453 52.5923C252.693 53.2002 251.724 53.5043 250.546 53.5043Z" fill="#87786C"/>
<path d="M267.842 20.7625C266.816 19.7745 266.018 19.0335 265.448 18.5395C264.878 18.0075 264.403 17.5705 264.023 17.2285C263.643 16.8865 263.168 16.5255 262.598 16.1455V15.5755C262.902 15.1195 263.32 14.5875 263.852 13.9795C264.384 13.3335 264.954 12.7065 265.562 12.0985C266.17 11.4525 266.721 10.9015 267.215 10.4455C267.671 9.9515 267.994 9.6475 268.184 9.5335H268.754C269.628 10.1035 270.388 10.6545 271.034 11.1865C271.642 11.6805 272.136 12.1555 272.516 12.6115C273.314 11.6615 274.112 10.8065 274.91 10.0465C275.708 9.2485 276.278 8.7355 276.62 8.5075H277.19C278.9 9.5715 280.116 10.5025 280.838 11.3005C281.598 12.0605 281.978 12.8775 281.978 13.7515C281.978 14.7015 281.427 15.7085 280.325 16.7725C279.261 17.8365 278.064 18.8245 276.734 19.7365H276.278C275.48 18.9765 274.815 18.3685 274.283 17.9125C273.789 17.4185 273.314 16.9815 272.858 16.6015C272.022 17.8935 270.502 19.2805 268.298 20.7625H267.842ZM271.946 10.3315C271.414 9.7995 270.958 9.3625 270.578 9.0205C270.198 8.6405 269.799 8.2605 269.381 7.8805C268.925 7.4625 268.298 6.9305 267.5 6.2845V5.8285C267.842 5.3345 268.336 4.7455 268.982 4.0615C269.59 3.3395 270.198 2.6745 270.806 2.0665C271.414 1.4585 271.889 1.0405 272.231 0.8125H272.687C274.321 1.8765 275.423 2.7315 275.993 3.3775C276.601 3.9855 276.905 4.5555 276.905 5.0875C276.905 5.6575 276.563 6.3605 275.879 7.1965C275.195 8.0325 274.055 9.0775 272.459 10.3315H271.946Z" fill="#87786C"/>
<path d="M250.523 53.5043C249.801 53.5043 249.193 53.0673 248.699 52.1933C248.205 51.3193 247.958 49.8373 247.958 47.7473C247.958 46.1133 248.186 44.7643 248.642 43.7003C249.098 42.6363 249.725 41.8383 250.523 41.3063C251.321 40.7743 252.252 40.5083 253.316 40.5083C254.608 40.5083 255.748 40.4132 256.736 40.2233C257.762 39.9953 258.693 39.5773 259.529 38.9692C260.061 38.6273 260.536 38.2093 260.954 37.7153C261.41 37.1833 261.828 36.5753 262.208 35.8913C263.082 34.4093 264.108 33.6683 265.286 33.6683C265.666 33.6683 266.065 33.7253 266.483 33.8392C266.901 33.9533 267.319 34.1053 267.737 34.2952C268.649 34.7133 269.599 34.9223 270.587 34.9223C271.955 34.9223 273.057 34.4663 273.893 33.5542C274.729 32.6803 275.47 31.6163 276.116 30.3623L277.427 30.1913C278.111 31.2933 279.156 31.8442 280.562 31.8442C281.854 31.8442 282.899 31.3883 283.697 30.4763C284.533 29.5263 285.046 28.4053 285.236 27.1133L286.718 26.9993C286.87 27.2652 286.965 27.5312 287.003 27.7972C287.535 28.2153 288.295 28.4243 289.283 28.4243C290.119 28.4243 290.708 28.8613 291.05 29.7353C291.392 30.5713 291.563 31.6543 291.563 32.9843C291.563 35.0743 291.145 36.6512 290.309 37.7153C289.511 38.7412 288.523 39.2543 287.345 39.2543C286.813 39.2543 286.281 39.1782 285.749 39.0262C285.255 38.8363 284.685 38.5513 284.039 38.1712C283.165 39.8053 282.196 40.8882 281.132 41.4202C280.106 41.9522 279.118 42.2183 278.168 42.2183C276.99 42.2183 275.774 41.7433 274.52 40.7933C273.57 42.4273 272.506 43.6053 271.328 44.3273C270.15 45.0113 269.029 45.3533 267.965 45.3533C266.521 45.3533 265.248 44.9352 264.146 44.0993C262.968 43.2632 262.17 42.8452 261.752 42.8452C261.524 42.8452 261.239 43.0542 260.897 43.4722C260.555 43.8522 260.156 44.4413 259.7 45.2393C259.244 45.9993 258.712 46.9683 258.104 48.1463C257.534 49.3242 256.869 50.3123 256.109 51.1103C255.349 51.9083 254.494 52.5163 253.544 52.9343C252.632 53.3143 251.625 53.5043 250.523 53.5043Z" fill="#87786C"/>
<path d="M287.373 39.2543C286.461 39.2543 285.853 38.7793 285.549 37.8293C285.245 36.8413 285.093 35.7963 285.093 34.6943C285.093 32.5663 285.511 30.9893 286.347 29.9633C287.183 28.9373 288.171 28.4243 289.311 28.4243C291.173 28.4243 292.655 28.2533 293.757 27.9113C294.897 27.5313 295.942 26.8473 296.892 25.8593C297.842 24.8713 298.944 23.4463 300.198 21.5843C300.844 20.6343 301.471 19.8363 302.079 19.1903C302.725 18.5063 303.371 17.9553 304.017 17.5373C304.663 17.1193 305.309 16.8533 305.955 16.7393C306.259 16.1313 306.658 15.4663 307.152 14.7443C307.646 14.0223 308.178 13.3003 308.748 12.5783C309.356 11.8563 309.945 11.2103 310.515 10.6403H311.484C311.826 11.6283 312.225 12.5783 312.681 13.4903C313.175 14.4023 313.726 15.2382 314.334 15.9983C314.942 16.7583 315.398 17.4803 315.702 18.1643C316.006 18.8483 316.158 19.4753 316.158 20.0453C316.158 20.8433 315.93 21.7553 315.474 22.7813C315.056 23.7693 314.486 24.7383 313.764 25.6883C313.042 26.6003 312.244 27.3603 311.37 27.9683C310.496 28.5763 309.641 28.8803 308.805 28.8803C308.311 28.8803 307.779 28.7853 307.209 28.5953C306.639 28.4053 306.031 28.1393 305.385 27.7973C304.739 27.4553 304.131 27.2083 303.561 27.0562C302.991 26.8663 302.497 26.7713 302.079 26.7713C301.091 26.7713 300.084 27.2843 299.058 28.3103C298.032 29.3363 296.968 30.8943 295.866 32.9843C294.802 35.0743 293.548 36.6513 292.104 37.7153C290.698 38.7413 289.121 39.2543 287.373 39.2543Z" fill="#87786C"/>
</svg>
